<svg width="15" height="15" viewBox="0 0 15 15" fill="none" xmlns="http://www.w3.org/2000/svg">
<path d="M1.12973 7.02006C1.12973 7.02006 1.72973 0.630063 8.71973 1.07006C13.8597 1.39006 14.6197 5.70006 14.6597 7.96006C14.6797 8.94006 14.4897 9.91006 14.0697 10.7901C13.2397 12.5401 11.2797 15.1801 7.08973 14.6101C0.909728 13.7701 0.92973 8.10006 1.13973 7.02006H1.12973Z" fill="#43BDA3" stroke="black" stroke-width="0.5" stroke-miterlimit="10"/>
<path d="M7.56012 10.8C7.17012 11.19 6.53012 11.19 6.13012 10.8L3.81012 8.48C3.39012 8.06 3.39012 7.39 3.81012 6.98C4.23012 6.57 4.90012 6.56 5.31012 6.98L6.84012 8.51L10.4101 4.94C10.8301 4.52 11.5001 4.52 11.9101 4.94C12.3201 5.36 12.3301 6.03 11.9101 6.44L7.56012 10.79V10.8Z" fill="white" stroke="black" stroke-width="0.5" stroke-miterlimit="10"/>
</svg>
