<svg width="53" height="41" viewBox="0 0 53 41" fill="none" xmlns="http://www.w3.org/2000/svg">
  <g clip-path="url(#clip0_1_2)">
    <path d="M8.03688 40.2893C8.39688 40.3493 10.9769 40.3693 14.6569 40.3693L14.6369 40.3493C25.4269 40.3493 45.6469 40.1493 46.8169 40.1393C47.6169 40.0193 48.4169 39.8993 48.8069 39.8393C53.1241 39.3896 52.5576 27.1651 52.0579 16.3802L52.0569 16.3593C51.9169 13.4493 51.7869 10.7093 51.8069 8.69927C51.8069 7.97927 51.7269 7.29927 51.5569 6.67927L51.4569 6.31927C51.0269 4.96927 50.1769 3.82927 48.9569 2.91927C48.7669 2.77927 48.5769 2.64927 48.3669 2.51927L48.2769 2.46927C48.0769 2.33927 47.8569 2.21927 47.6169 2.09927C47.4569 2.00927 47.2869 1.93927 47.1169 1.85927C46.8169 1.72927 46.5069 1.59927 46.1969 1.48927C45.3869 1.18927 44.5469 0.959271 43.7069 0.789271C43.5069 0.749271 43.3069 0.709271 43.0969 0.669271L43.0069 0.649271C42.9569 0.639271 42.9169 0.629271 42.8869 0.629271C42.4969 0.569271 42.1069 0.509271 41.7169 0.459271L41.3369 0.409271C41.0269 0.369271 40.7169 0.339271 40.3969 0.309271L39.0969 0.219271C38.7269 0.209271 38.3569 0.179271 38.0169 0.179271C37.2169 0.159271 36.4969 0.139271 35.8869 0.139271C35.3969 0.139271 34.9769 0.129271 34.6569 0.119271C32.8869 0.0592707 30.4869 0.0092707 27.9669 0.0092707C27.4669 -0.0907293 8.07688 0.649271 6.97688 0.739271C6.50688 0.709271 4.85688 1.04927 4.34688 1.39927C2.97688 1.95927 0.706884 3.66927 0.606884 8.78927C0.626884 10.8293 0.486884 13.6293 0.346884 16.5893L0.337229 16.7915C0.149535 20.7215 -0.0617648 25.1458 0.0168836 29.0193V29.1293C0.0168836 29.4393 0.0268836 29.7493 0.0468836 30.0493L0.0768836 30.8693C0.0868836 31.1193 0.106884 31.3793 0.126884 31.6293C0.246884 33.2593 0.406884 34.5893 0.646884 35.6893C0.666884 35.8393 0.696884 35.9693 0.736884 36.1093C0.886884 36.7493 1.05688 37.2893 1.26688 37.7593C1.30688 37.8493 1.34688 37.9393 1.37688 37.9993C1.42688 38.1193 1.48688 38.2193 1.53688 38.3093C1.76688 38.7193 2.00688 39.0493 2.28688 39.2993C2.44688 39.4493 2.61688 39.5593 2.82688 39.6793C2.88688 39.7093 2.95688 39.7393 3.02688 39.7693C3.10688 39.7993 3.20688 39.8293 3.35688 39.8693C3.42688 39.8893 3.49688 39.9093 3.58688 39.9093L8.03688 40.2893Z" fill="black" stroke="#231F20" stroke-width="0.2" stroke-miterlimit="10"/>
  </g>
  <defs>
    <clipPath id="clip0_1_2">
      <rect width="52.64" height="40.57" fill="white"/>
    </clipPath>
  </defs>
</svg>
