<?xml version="1.0" encoding="UTF-8"?>
<svg id="Layer_2" data-name="Layer 2" xmlns="http://www.w3.org/2000/svg" viewBox="0 0 67.67 67.69">
  <defs>
    <style>
      .cls-1 {
        fill: #080909;
      }

      .cls-1, .cls-2, .cls-3 {
        stroke-width: 0px;
      }

      .cls-2 {
        fill: #ef3f34;
      }

      .cls-3 {
        fill: #fff;
      }
    </style>
  </defs>
  <g id="Layer_1-2" data-name="Layer 1">
    <g>
      <path class="cls-1" d="M41.01,34.51l-12.88,6.16c-.34.16-.75-.1-.75-.47v-12.68c0-.39.41-.65.75-.47l12.9,6.56c.37.18.37.73-.02.91Z"/>
      <path class="cls-1" d="M33.84,0C15.15,0,0,15.16,0,33.84s15.15,33.85,33.84,33.85,33.83-15.15,33.83-33.85S52.52,0,33.84,0ZM57.42,40.73c0,5.41-4.36,9.79-9.78,9.79h-27.57c-5.39,0-9.79-4.39-9.79-9.79v-13.76c0-5.44,4.4-9.8,9.79-9.8h27.57c5.41,0,9.78,4.36,9.78,9.8v13.76Z"/>
      <path class="cls-3" d="M41.01,34.51l-12.88,6.16c-.34.16-.75-.1-.75-.47v-12.68c0-.39.41-.65.75-.47l12.9,6.56c.37.18.37.73-.02.91Z"/>
      <path class="cls-2" d="M33.84,0C15.15,0,0,15.16,0,33.84s15.15,33.85,33.84,33.85,33.83-15.15,33.83-33.85S52.52,0,33.84,0ZM57.42,40.73c0,5.41-4.36,9.79-9.78,9.79h-27.57c-5.39,0-9.79-4.39-9.79-9.79v-13.76c0-5.44,4.4-9.8,9.79-9.8h27.57c5.41,0,9.78,4.36,9.78,9.8v13.76ZM41.03,33.6l-12.9-6.56c-.34-.18-.75.08-.75.47v12.68c0,.37.41.63.75.47l12.88-6.16c.39-.18.39-.73.02-.91ZM41.03,33.6l-12.9-6.56c-.34-.18-.75.08-.75.47v12.68c0,.37.41.63.75.47l12.88-6.16c.39-.18.39-.73.02-.91Z"/>
      <path class="cls-3" d="M47.64,17.17h-27.57c-5.39,0-9.79,4.36-9.79,9.8v13.76c0,5.41,4.4,9.79,9.79,9.79h27.57c5.41,0,9.78-4.39,9.78-9.79v-13.76c0-5.44-4.36-9.8-9.78-9.8ZM41.01,34.51l-12.88,6.16c-.34.16-.75-.1-.75-.47v-12.68c0-.39.41-.65.75-.47l12.9,6.56c.37.18.37.73-.02.91Z"/>
    </g>
  </g>
</svg>