<?xml version="1.0" encoding="UTF-8"?>
<svg id="Layer_1" data-name="Layer 1" xmlns="http://www.w3.org/2000/svg" version="1.1" viewBox="0 0 283.46 283.46">
  <defs>
    <style>
      .cls-1 {
        fill: #010101;
        stroke: #231f20;
        stroke-miterlimit: 10;
        stroke-width: .2px;
      }

      .cls-2 {
        fill: #64abde;
        stroke-width: 0px;
      }
    </style>
  </defs>
  <path class="cls-1" d="M127.44,171.19c-3.68,0-6.26-.02-6.62-.08l-4.45-.38c-.09,0-.16-.02-.23-.04-.15-.04-.25-.07-.33-.1-.07-.03-.14-.06-.2-.09-.21-.12-.38-.23-.54-.38-.28-.25-.52-.58-.75-.99-.05-.09-.11-.19-.16-.31-.03-.06-.07-.15-.11-.24-.21-.47-.38-1.01-.53-1.65-.04-.14-.07-.27-.09-.42-.24-1.1-.4-2.43-.52-4.06-.02-.25-.04-.51-.05-.76l-.03-.82c-.02-.3-.03-.61-.03-.92v-.11c-.08-3.94.14-8.45.33-12.43.14-2.96.28-5.76.26-7.8.1-5.12,2.37-6.83,3.74-7.39.51-.35,2.16-.69,2.63-.66,1.12-.05,20.51-.8,21.01-.7,2.52,0,4.92.05,6.69.11.32.01.74.02,1.23.02.61,0,1.33.02,2.13.04.34,0,.71.03,1.08.04l1.3.09c.32.03.63.06.94.1l.38.05c.39.05.78.11,1.17.17.03,0,.07.01.12.02l.09.02c.21.04.41.08.61.12.84.17,1.68.4,2.49.7.31.11.62.24.92.37.17.08.34.15.5.24.24.12.46.24.66.37l.09.05c.21.13.4.26.59.4,1.22.91,2.07,2.05,2.5,3.4l.1.36c.17.62.25,1.3.25,2.02h0c-.02,2.01.11,4.75.25,7.66.5,10.79,1.07,23.03-3.25,23.48-.39.06-1.19.18-1.99.3-1.17.01-21.39.21-32.18.21ZM117.44,132.85c-1.2.48-3.24,1.99-3.33,6.74.02,2.05-.12,4.86-.26,7.83-.19,3.97-.41,8.46-.33,12.38v.1c.01.31.02.61.04.91l.03.83c0,.25.03.49.04.74.11,1.6.27,2.9.5,3.97.03.14.05.26.09.39.14.6.3,1.1.49,1.53.03.08.07.16.1.22.05.1.09.18.13.26.19.36.39.62.61.82.12.11.25.19.35.26.08.04.11.06.16.07.06.02.13.04.19.06.1.02.14.03.19.04l4.47.38c1.14.2,28.28-.03,38.65-.13.75-.12,1.55-.24,1.96-.3,3.65-.39,3.03-13.83,2.62-22.73-.14-2.92-.26-5.67-.25-7.69,0-.65-.08-1.27-.23-1.83l-.04-.15c-.02-.06-.04-.13-.05-.2-.38-1.17-1.14-2.19-2.23-3.01-.17-.12-.34-.25-.53-.36-.27-.17-.49-.28-.7-.39-.17-.09-.32-.16-.48-.23-.28-.13-.57-.24-.87-.35-.77-.28-1.57-.51-2.39-.67-.2-.05-.39-.08-.58-.12l-.21-.04c-.37-.07-.76-.12-1.14-.17l-.37-.04c-.31-.03-.62-.07-.92-.1l-1.23-.08c-.41-.02-.77-.04-1.11-.05-.79-.03-1.51-.03-2.12-.04-.5,0-.93-.01-1.25-.02-1.76-.07-4.16-.11-6.73-.12-.79-.05-20.08.61-20.91.7h-.05s-.05,0-.05,0c-.29-.05-1.89.35-2.13.52l-.06.09h-.06Z"/>
  <g>
    <path class="cls-2" d="M164.25,139.53c0-.7-.08-1.34-.24-1.93-.03-.11-.06-.22-.09-.33-.44-1.36-1.29-2.41-2.37-3.21-.18-.13-.36-.26-.56-.38-.02,0-.04-.03-.07-.04-.21-.14-.44-.26-.68-.38-.16-.08-.31-.16-.48-.23-.29-.13-.58-.25-.89-.36-.78-.29-1.6-.52-2.45-.69-.19-.05-.39-.08-.59-.12-.07,0-.14-.03-.21-.04-.42-.07-.84-.13-1.26-.19-.41-.05-.81-.09-1.19-.13-.43-.03-.84-.06-1.24-.08-.39-.02-.77-.04-1.13-.05-1.45-.05-2.65-.04-3.36-.07-1.94-.07-4.41-.11-6.74-.12-.26-.05-20.02.6-20.95.7-.38-.06-2.28.39-2.45.62-1.82.72-3.47,2.79-3.56,7.07.04,4.77-.73,13.34-.59,20.22,0,.35.02.69.04,1.03,0,.28.02.56.03.82,0,.25.03.5.05.75.1,1.49.26,2.85.51,4.02.03.14.06.27.09.41.14.59.31,1.12.51,1.58.04.08.07.17.11.24.05.1.09.19.15.29.19.36.42.67.68.9.13.12.27.21.41.3.07.04.14.07.21.1.07.03.16.06.23.07.08.02.16.04.24.05l4.48.38c1.39.24,38.68-.13,38.68-.13.81-.12,1.6-.24,2.01-.31,5.17-.55,2.61-22.06,2.68-30.78Z"/>
    <g>
      <path class="cls-2" d="M125.02,154.06s-1.81-2.19.51-4.23c1.71-1.5,3.29-.4,4.01.3.31.3.55.66.7,1.07.29.81.5,2.24-.99,3.38-2.19,1.67-3.96-.11-4.23-.51Z"/>
      <path class="cls-1" d="M127.38,155.68c-.16,0-.32-.01-.48-.04-1.17-.19-1.98-1.02-2.2-1.34-.18-.23-1.89-2.59.57-4.76,1.99-1.75,3.84-.37,4.55.31.36.35.63.76.8,1.22.31.87.59,2.53-1.12,3.83-.68.52-1.39.78-2.11.78ZM127.32,149.48c-.48,0-1,.18-1.53.65-2,1.76-.53,3.61-.47,3.69l.02.03c.12.18.76.87,1.68,1.02.66.11,1.33-.09,1.99-.59,1.24-.94,1.15-2.11.85-2.93-.12-.34-.33-.65-.6-.92-.51-.49-1.18-.94-1.94-.94Z"/>
    </g>
    <g>
      <path class="cls-2" d="M134.46,160.61v2.02c0,.22-.19.4-.43.4h-13.26c-.24,0-.43-.18-.43-.4v-2.02c0-1.43,1.32-2.48,2.91-3.15,1.41-.6,3.04-.89,4.15-.89s2.75.3,4.17.9c1.58.67,2.89,1.72,2.89,3.14Z"/>
      <path class="cls-1" d="M134.03,163.43h-13.26c-.45,0-.83-.36-.83-.8v-2.02c0-1.41,1.12-2.65,3.16-3.51,1.33-.56,3.02-.92,4.3-.92s2.99.36,4.32.93c2.02.85,3.13,2.1,3.13,3.5v2.02c0,.44-.37.8-.83.8ZM127.4,156.97c-1.19,0-2.76.34-3.99.86-1,.42-2.67,1.34-2.67,2.78v2.02h13.3s.03-2.02.03-2.02c0-1.44-1.66-2.35-2.65-2.77-1.51-.64-3.11-.87-4.02-.87Z"/>
    </g>
    <g>
      <g>
        <path class="cls-1" d="M157.54,149.87h-14.56c-.24,0-.44-.18-.44-.4s.2-.4.44-.4h14.56c.24,0,.44.18.44.4s-.2.4-.44.4Z"/>
        <path class="cls-1" d="M157.54,154.16h-14.56c-.24,0-.44-.18-.44-.4s.2-.4.44-.4h14.56c.24,0,.44.18.44.4s-.2.4-.44.4Z"/>
        <path class="cls-1" d="M157.54,158.44h-14.56c-.24,0-.44-.18-.44-.4s.2-.4.44-.4h14.56c.24,0,.44.18.44.4s-.2.4-.44.4Z"/>
      </g>
      <path class="cls-1" d="M157.54,162.72h-14.56c-.24,0-.44-.18-.44-.4s.2-.4.44-.4h14.56c.24,0,.44.18.44.4s-.2.4-.44.4Z"/>
    </g>
    <rect class="cls-1" x="113.81" y="141.4" width="50.47" height=".79"/>
  </g>
</svg>