<?xml version="1.0" encoding="UTF-8"?>
<svg id="Layer_2" data-name="Layer 2" xmlns="http://www.w3.org/2000/svg" viewBox="0 0 52.39 69.09">
  <defs>
    <style>
      .cls-1 {
        fill: #000;
      }

      .cls-1, .cls-2 {
        stroke-width: 0px;
      }

      .cls-2 {
        fill: #fcb223;
      }
    </style>
  </defs>
  <g id="Layer_1-2" data-name="Layer 1">
    <g>
      <g>
        <path class="cls-2" d="M50.48,30.67c-1.04,8.23-4.62,15.92-9.94,22.3-3.67,4.39-8.49,9.96-12.32,13.68-1.13,1.1-2.93,1.1-4.06,0-3.82-3.73-8.64-9.3-12.32-13.68-5.32-6.37-8.9-14.07-9.94-22.3C-.2,14.05,8.97,6.72,16.64,3.51c6.1-2.55,13.02-2.55,19.11,0,7.67,3.21,16.84,10.54,14.73,27.16Z"/>
        <path class="cls-1" d="M26.19,69.09c-1.13,0-2.27-.43-3.15-1.29-3.15-3.07-7.33-7.71-12.43-13.8C4.93,47.18,1.37,39.19.32,30.87-2.02,12.47,9.15,4.9,16.02,2.03c6.47-2.71,13.88-2.71,20.35,0,6.87,2.87,18.04,10.44,15.7,28.84-1.05,8.32-4.62,16.32-10.3,23.13-5.1,6.09-9.28,10.74-12.43,13.8-.88.86-2.02,1.29-3.15,1.29ZM26.19,3.21c-3.05,0-6.1.59-8.94,1.78C9.9,8.07,1.53,14.99,3.5,30.46c.98,7.71,4.29,15.13,9.58,21.47,4.96,5.92,9.18,10.61,12.21,13.56.51.5,1.31.5,1.82,0,3.02-2.95,7.24-7.64,12.21-13.57,5.29-6.33,8.6-13.76,9.58-21.47h0c1.96-15.48-6.4-22.4-13.76-25.47-2.84-1.19-5.89-1.78-8.94-1.78Z"/>
      </g>
      <g>
        <path class="cls-2" d="M34.98,27.14c0,2.43-.86,4.5-2.58,6.21-1.72,1.72-3.79,2.59-6.21,2.59s-4.48-.87-6.2-2.59c-1.73-1.71-2.58-3.78-2.58-6.21s.86-4.47,2.58-6.21c1.72-1.71,3.79-2.57,6.2-2.57s4.49.86,6.21,2.57c1.73,1.74,2.58,3.81,2.58,6.21Z"/>
        <path class="cls-1" d="M26.19,37.54c-2.84,0-5.31-1.03-7.34-3.06-2.02-2-3.05-4.48-3.05-7.34s1.03-5.31,3.05-7.34c2.03-2.02,4.5-3.04,7.34-3.04s5.32,1.02,7.34,3.03c2.03,2.04,3.06,4.51,3.06,7.35s-1.03,5.34-3.06,7.35c-2.03,2.03-4.5,3.06-7.34,3.06ZM26.19,19.96c-1.99,0-3.65.69-5.07,2.1-1.42,1.42-2.11,3.09-2.11,5.07s.69,3.67,2.11,5.07c1.43,1.43,3.09,2.13,5.07,2.13s3.65-.69,5.08-2.12c1.42-1.41,2.11-3.07,2.11-5.08s-.69-3.65-2.12-5.08c-1.41-1.41-3.08-2.09-5.07-2.09Z"/>
      </g>
    </g>
  </g>
</svg>