<?xml version="1.0" encoding="UTF-8"?>
<svg id="Layer_2" data-name="Layer 2" xmlns="http://www.w3.org/2000/svg" viewBox="0 0 941.92 840.66">
  <defs>
    <style>
      .cls-1 {
        fill: #000;
      }

      .cls-1, .cls-2 {
        stroke-width: 0px;
      }

      .cls-2 {
        fill: #fcb223;
      }
    </style>
  </defs>
  <g id="Layer_1-2" data-name="Layer 1">
    <g>
      <path class="cls-2" d="M941.92,0v840.66H10.94s-16.49-23.09.07-77.84c21.44-70.89,63.64-116.82,19.07-238.72-29.77-81.42-46.91-116.34,2.05-283.59C57.96,152.26,15.96,14.45,11.41,0h1.3s929.21,0,929.21,0Z"/>
      <path class="cls-1" d="M27.25,721.43c-5.21,13.31-10.61,27.06-15.05,41.74-8.44,27.93-8.05,47.33-6.24,58.69,1.96,12.27,6.37,18.75,6.41,18.8h-2.45c-.69-.97-16.65-23.5-.11-78.2,4.47-14.76,9.88-28.57,15.11-41.92,20.13-51.36,39.14-99.87,3.98-196.03-1.11-3.05-2.21-6.05-3.29-8.97-27.91-75.92-41.92-114.02,5.32-275.39C56.73,152.02,13.96,12.28,10.1,0h2.61c2.4,7.68,12.72,41.83,20.32,84.46,7.96,44.63,14.46,107.99.3,156.37C-13.68,401.44.23,439.29,27.96,514.7c1.08,2.93,2.18,5.93,3.3,8.98,35.47,97.02,16.29,145.95-4.01,197.75Z"/>
    </g>
  </g>
</svg>