<?xml version="1.0" encoding="UTF-8"?>
<svg id="Layer_2" data-name="Layer 2" xmlns="http://www.w3.org/2000/svg" viewBox="0 0 1794.18 828.88" preserveAspectRatio="none">
  <defs>
    <style>
      .cls-1 {
        fill: #000;
      }

      .cls-1, .cls-2 {
        stroke-width: 0px;
      }

      .cls-2 {
        fill: #fcb223;
      }
    </style>
  </defs>
  <g id="Layer_1-2" data-name="Layer 1">
    <g>
      <path class="cls-2" d="M1794.18,53.91v745.33c-21.21,1.6-309.2,22.65-445.56-.1-227.66-37.97-268.92,35.81-502.81,5.41-179.2-23.29-245.87-43.38-504.11,11.31-101,21.39-310.56,10.5-341.7-7.88v-.73L1.11,56.23v-1.45s273.64,42.01,462.36-9.71c320.6-87.86,347.8-19.74,567.03,0,99.07,8.92,336.43,21.64,480.13-4.69,156.41-28.66,237.83,20.28,283.55,13.53Z"/>
      <path class="cls-1" d="M1348.82,797.91c-116.81-19.49-183.68-9.74-254.46.59-66.12,9.64-134.49,19.62-248.39,4.81-19.37-2.52-37.25-4.98-54.55-7.35-141.5-19.44-219.44-30.15-449.98,18.67-100.37,21.26-308.89,10.4-341.44-7.38v2.8c17.65,8.51,75.56,15.68,144.61,18.03,15.75.54,31.31.8,46.49.8,60.42,0,114.79-4.16,150.86-11.8,230.11-48.73,307.9-38.05,449.12-18.65,17.3,2.38,35.19,4.84,54.57,7.36,114.24,14.85,182.78,4.85,249.07-4.82,70.59-10.29,137.26-20.02,253.69-.59,46.99,7.83,112.21,10.45,178.31,10.44,124.34,0,252.94-9.24,267.46-10.33v-2.51c-20.66,1.55-309.85,22.53-445.36-.07ZM1733.77,45.49c-50.61-10.68-119.92-25.3-223.37-6.34-138.28,25.34-366.65,14.86-479.78,4.67-63.27-5.69-111.21-15.56-153.5-24.27C823.79,8.57,777.72-.92,715.96.07c-67.41,1.08-147.75,15-252.82,43.79-97.33,26.67-217.7,27.89-301.54,24.21C76.86,64.35,10.11,55.03,1.1,53.7v2.53h.01c10.38,1.52,76.62,10.66,160.35,14.34,84.03,3.69,204.69,2.46,302.34-24.3C568.66,17.54,648.8,3.65,716,2.57c61.49-.97,107.43,8.48,160.61,19.43,42.36,8.72,90.37,18.61,153.78,24.31,113.27,10.2,341.92,20.69,480.46-4.7,102.97-18.87,172-4.31,222.4,6.32,25.09,5.29,45.17,9.51,60.93,7.25v-2.53c-15.37,2.31-35.37-1.88-60.41-7.16Z"/>
    </g>
  </g>
</svg>