<svg xmlns="http://www.w3.org/2000/svg" viewBox="0 0 12.2 13.56"><defs><style>.cls-1{fill:#4a87c6;}</style></defs><g id="Layer_2" data-name="Layer 2"><g id="Layer_1-2" data-name="Layer 1"><path class="cls-1" d="M1.36,13.56a1.28,1.28,0,0,1-1-.4,1.28,1.28,0,0,1-.4-1V2.71a1.31,1.31,0,0,1,.4-1,1.3,1.3,0,0,1,1-.39H2V0H3.39V1.36H8.81V0h1.36V1.36h.68A1.33,1.33,0,0,1,12.2,2.71V12.2a1.35,1.35,0,0,1-1.35,1.36Zm0-1.36h9.49V5.42H1.36Zm0-8.13h9.49V2.71H1.36Zm0,0v0ZM6.1,8.14a.68.68,0,0,1,0-1.36.68.68,0,0,1,.49.2.7.7,0,0,1,0,1A.68.68,0,0,1,6.1,8.14Zm-2.71,0a.68.68,0,1,1,.48-.2A.66.66,0,0,1,3.39,8.14Zm5.42,0a.66.66,0,0,1-.48-.2.7.7,0,0,1,0-1,.69.69,0,0,1,1,0,.7.7,0,0,1,0,1A.66.66,0,0,1,8.81,8.14ZM6.1,10.85a.68.68,0,0,1,0-1.36.68.68,0,0,1,.49.2.7.7,0,0,1,0,1A.68.68,0,0,1,6.1,10.85Zm-2.71,0a.68.68,0,1,1,.48-.2A.66.66,0,0,1,3.39,10.85Zm5.42,0a.66.66,0,0,1-.48-.2.7.7,0,0,1,0-1,.69.69,0,0,1,1,0,.7.7,0,0,1,0,1A.66.66,0,0,1,8.81,10.85Z"/></g></g></svg>