<?xml version="1.0" encoding="UTF-8"?>
<svg id="Layer_2" data-name="Layer 2" xmlns="http://www.w3.org/2000/svg" viewBox="0 0 17.75 9.86">
  <defs>
    <style>
      .cls-1 {
        fill: #fff;
        stroke-width: 0px;
      }
    </style>
  </defs>
  <g id="Layer_1-2" data-name="Layer 1">
    <path class="cls-1" d="m3.94,1.97V0h13.81v1.97H3.94Zm0,3.94v-1.97h13.81v1.97H3.94Zm0,3.94v-1.97h13.81v1.97H3.94ZM.99,1.97c-.28,0-.51-.09-.7-.28-.19-.19-.28-.42-.28-.7S.09.47.28.28c.19-.19.42-.28.7-.28s.51.09.7.28.28.42.28.7-.09.51-.28.7-.42.28-.7.28Zm0,3.94c-.28,0-.51-.09-.7-.28-.19-.19-.28-.42-.28-.7s.09-.51.28-.7c.19-.19.42-.28.7-.28s.51.09.7.28c.19.19.28.42.28.7s-.09.51-.28.7-.42.28-.7.28Zm0,3.94c-.28,0-.51-.09-.7-.28-.19-.19-.28-.42-.28-.7s.09-.51.28-.7c.19-.19.42-.28.7-.28s.51.09.7.28.28.42.28.7-.09.51-.28.7-.42.28-.7.28Z"/>
  </g>
</svg>