<svg xmlns="http://www.w3.org/2000/svg" viewBox="0 0 12.25 16.08"><defs><style>.cls-1{fill:#fecc84;}</style></defs><g id="Layer_2" data-name="Layer 2"><g id="Layer_1-2" data-name="Layer 1"><path class="cls-1" d="M1.53,16.08a1.47,1.47,0,0,1-1.08-.45A1.47,1.47,0,0,1,0,14.55V6.89A1.47,1.47,0,0,1,.45,5.81a1.47,1.47,0,0,1,1.08-.45H2.3V3.83A3.68,3.68,0,0,1,3.42,1.12,3.67,3.67,0,0,1,6.13,0a3.66,3.66,0,0,1,2.7,1.12A3.68,3.68,0,0,1,10,3.83V5.36h.77a1.54,1.54,0,0,1,1.53,1.53v7.66a1.54,1.54,0,0,1-1.53,1.53Zm0-1.53h9.19V6.89H1.53Zm4.6-2.3A1.53,1.53,0,0,0,7.21,9.64,1.53,1.53,0,0,0,5,9.64a1.53,1.53,0,0,0,1.09,2.61ZM3.83,5.36H8.42V3.83A2.21,2.21,0,0,0,7.75,2.2a2.19,2.19,0,0,0-1.62-.67A2.2,2.2,0,0,0,4.5,2.2a2.21,2.21,0,0,0-.67,1.63Zm-2.3,9.19v0Z"/></g></g></svg>