<?xml version="1.0" encoding="UTF-8"?>
<svg id="Layer_2" data-name="Layer 2" xmlns="http://www.w3.org/2000/svg" viewBox="0 0 77.51 53.86">
  <defs>
    <style>
      .cls-1 {
        fill: #fff;
        stroke-width: 0px;
      }
    </style>
  </defs>
  <g id="Layer_1-2" data-name="Layer 1">
    <g>
      <path class="cls-1" d="m35.75,20.73c0,1.82-.63,3.41-1.92,4.71-1.33,1.29-2.88,1.92-4.71,1.92s-3.38-.63-4.67-1.92c-1.29-1.29-1.95-2.88-1.95-4.71s.66-3.38,1.95-4.67c1.29-1.29,2.85-1.96,4.67-1.96s3.38.66,4.71,1.96c1.29,1.29,1.92,2.85,1.92,4.67Z"/>
      <g>
        <path class="cls-1" d="m57.29,27.35c-4.64,1.29-9.28,2.15-13.95,2.62-4.67.46-9.41.7-14.22.7s-9.55-.23-14.18-.7c-3.59-.36-7.18-.95-10.76-1.79-1.79-.42-3.59.62-4.03,2.4l-.05.19c-.44,1.77.62,3.6,2.4,4.02,2.22.52,4.44.95,6.67,1.31,3.31.53,6.66.93,10.01,1.19v13.26c0,1.83,1.48,3.31,3.31,3.31h13.26c1.83,0,3.31-1.48,3.31-3.31v-13.26c3.38-.27,6.73-.66,10.04-1.19,3.31-.53,6.6-1.23,9.84-2.12l-1.66-6.63Z"/>
        <g>
          <path class="cls-1" d="m76.26,5.56c-.86-.84-1.85-1.25-3.03-1.25h-4.31v-1.7c0-1.44-1.17-2.61-2.61-2.61h-16.24c-1.44,0-2.61,1.17-2.61,2.61v1.7h-4.28c-1.2,0-2.19.42-3.06,1.25-.84.84-1.25,1.85-1.25,3.03v2.17c0,2.28.7,4.53,2.08,6.33,1.9,2.48,4.36,3.92,7.37,4.27.65,1.67,1.64,3.03,3.03,4.13,1.02.81,2.14,1.42,3.35,1.84.83.29,1.35,1.11,1.35,1.99v9.17h4.28v-9.17c0-.88.52-1.7,1.35-1.99,1.22-.42,2.34-1.03,3.36-1.84,1.38-1.1,2.4-2.45,3.03-4.13,3.02-.35,5.48-1.79,7.38-4.28,1.38-1.8,2.07-4.05,2.07-6.32v-2.17c0-1.17-.42-2.19-1.25-3.03Zm-28.8,11.2c-1.28-.47-2.32-1.25-3.11-2.35-.78-1.07-1.17-2.3-1.17-3.66v-2.17h4.28v8.17Zm17.18.42c0,1.8-.63,3.32-1.88,4.57-1.25,1.25-2.77,1.88-4.57,1.88s-3.32-.63-4.57-1.88c-1.25-1.25-1.88-2.77-1.88-4.57V4.31h12.9v12.87Zm8.59-6.42c0,1.36-.42,2.59-1.2,3.66-.78,1.1-1.83,1.88-3.11,2.35v-8.17h4.31v2.17Z"/>
          <rect class="cls-1" x="47.45" y="38.49" width="21.47" height="4.29" rx=".82" ry=".82"/>
        </g>
      </g>
    </g>
  </g>
</svg>