<?xml version="1.0" encoding="UTF-8"?>
<svg id="Layer_2" data-name="Layer 2" xmlns="http://www.w3.org/2000/svg" viewBox="0 0 27.99 13.64">
  <defs>
    <style>
      .cls-1 {
        fill: #fff;
        stroke-width: 0px;
      }
    </style>
  </defs>
  <g id="Layer_1-2" data-name="Layer 1">
    <g>
      <g>
        <path class="cls-1" d="m23.23,9.33c0,.21-.08.4-.23.56-.16.16-.35.23-.58.23-.21,0-.4-.07-.56-.23-.16-.16-.24-.35-.24-.56h1.61Z"/>
        <path class="cls-1" d="m21.05,4.31c-.35.26-.63.58-.85.98-.2.39-.31.82-.31,1.29h-.71c0-.59.13-1.13.39-1.62.26-.48.61-.89,1.06-1.21l.41.56Z"/>
        <path class="cls-1" d="m25.68,6.58h-.71c0-.47-.11-.9-.31-1.29-.21-.4-.49-.72-.85-.98l.41-.56c.45.32.79.73,1.06,1.21.26.49.39,1.03.39,1.62Z"/>
        <path class="cls-1" d="m24.8,8.44v.59h-4.73v-.59h.59v-2.07c0-.41.12-.77.37-1.1.25-.32.57-.52.96-.62v-.21c0-.12.05-.23.14-.32.08-.08.19-.13.31-.13.13,0,.23.05.32.13.09.09.13.2.13.32v.21c.39.1.72.31.97.62.25.33.37.68.37,1.1v2.07h.59Z"/>
      </g>
      <path class="cls-1" d="m10.68,3.45c0,.56-.19,1.05-.59,1.45-.41.4-.89.59-1.45.59s-1.04-.19-1.44-.59c-.4-.4-.6-.89-.6-1.45s.2-1.04.6-1.44c.4-.4.88-.6,1.44-.6s1.04.2,1.45.6c.4.4.59.88.59,1.44Z"/>
      <path class="cls-1" d="m17.61,5.49c-1.43.4-2.85.66-4.29.8-1.44.14-2.89.21-4.37.21s-2.93-.07-4.36-.21c-1.1-.11-2.21-.29-3.31-.55-.55-.13-1.1.19-1.24.74v.06c-.15.54.18,1.11.72,1.23.68.16,1.36.29,2.05.4,1.02.16,2.05.28,3.08.37v4.07c0,.56.46,1.02,1.02,1.02h4.07c.56,0,1.02-.46,1.02-1.02v-4.07c1.04-.08,2.07-.2,3.09-.37,1.02-.16,2.03-.38,3.03-.65l-.51-2.04Z"/>
      <path class="cls-1" d="m27.63,1.6c-.24-.24-.53-.36-.87-.36h-2.59c-.14-.37-.36-.67-.67-.89-.31-.22-.66-.34-1.06-.34s-.74.11-1.06.34c-.31.23-.54.53-.67.89h-2.59c-.34,0-.63.12-.87.36-.24.24-.36.53-.36.87v8.64c0,.34.12.63.36.87.24.24.53.36.87.36h8.64c.34,0,.63-.12.87-.36.24-.24.36-.53.36-.87V2.47c0-.34-.12-.63-.36-.87Zm-5.53-.38c.09-.09.2-.13.33-.13s.25.04.33.13c.09.09.13.2.13.33s-.04.24-.13.33-.2.13-.33.13-.24-.05-.33-.13c-.09-.09-.13-.2-.13-.33s.04-.25.13-.33Zm4.65,9.9h-8.64V2.47h8.64v8.64Z"/>
    </g>
  </g>
</svg>