<?xml version="1.0" encoding="UTF-8"?>
<svg id="Layer_2" data-name="Layer 2" xmlns="http://www.w3.org/2000/svg" viewBox="0 0 79.31 64.61">
  <defs>
    <style>
      .cls-1 {
        fill: #fff;
        stroke-width: 0px;
      }
    </style>
  </defs>
  <g id="Layer_1-2" data-name="Layer 1">
    <g>
      <path class="cls-1" d="m60.71,58.86v4.06c0,.93.76,1.69,1.69,1.69h15.21c.93,0,1.69-.76,1.69-1.69v-4.06c0-.93-.76-1.69-1.69-1.69h-15.21c-.93,0-1.69.76-1.69,1.69Zm0-11.17v4.06c0,.93.76,1.69,1.69,1.69h15.21c.93,0,1.69-.76,1.69-1.69v-4.06c0-.93-.76-1.69-1.69-1.69h-15.21c-.93,0-1.69.76-1.69,1.69Zm0-11.17v4.06c0,.93.76,1.69,1.69,1.69h15.21c.93,0,1.69-.76,1.69-1.69v-4.06c0-.93-.76-1.69-1.69-1.69h-15.21c-.93,0-1.69.76-1.69,1.69Z"/>
      <path class="cls-1" d="m64.43,7.44c0,2.05-.74,3.79-2.23,5.26-1.49,1.45-3.25,2.18-5.3,2.18s-3.82-.73-5.31-2.18c-1.49-1.47-2.23-3.22-2.23-5.26s.74-3.81,2.23-5.26c1.49-1.45,3.27-2.18,5.31-2.18s3.81.73,5.3,2.18c1.49,1.45,2.23,3.21,2.23,5.26Z"/>
      <path class="cls-1" d="m70.01,31.38v5.84c-3.84,0-7.33-.59-10.46-1.78-3.15-1.17-5.92-2.94-8.34-5.3l-3.72-3.91-8.19,8.19,5.25,5.25c1.57,1.57,1.23,4.21-.7,5.33l-19.1,11c-.81.47-1.84.19-2.31-.62l-2.02-3.49c-.47-.81-.19-1.85.62-2.32l14.54-8.37-6.33-6.33L5.69,58.36c-.66.66-1.73.66-2.39,0l-2.81-2.82c-.66-.66-.66-1.73,0-2.39L35.02,18.61h-9.68v5.75c0,.93-.76,1.69-1.69,1.69h-4.06c-.93,0-1.69-.76-1.69-1.69v-11.51c0-.93.76-1.69,1.69-1.69h20c1,0,1.95.19,2.88.56.93.37,1.74.9,2.42,1.57l11.17,11.08c1.68,1.67,3.72,2.98,6.14,3.91,1.95.75,4.02,1.21,6.22,1.4.89.08,1.6.79,1.6,1.69Z"/>
    </g>
  </g>
</svg>