<?xml version="1.0" encoding="UTF-8"?>
<svg id="Layer_2" data-name="Layer 2" xmlns="http://www.w3.org/2000/svg" viewBox="0 0 73.64 55.08">
  <defs>
    <style>
      .cls-1 {
        fill: #fff;
        stroke-width: 0px;
      }
    </style>
  </defs>
  <g id="Layer_1-2" data-name="Layer 1">
    <g>
      <path class="cls-1" d="m13.08,55.08c-1.72,0-3.18-.6-4.39-1.81s-1.81-2.67-1.81-4.39c0-1.2.34-2.34,1.03-3.4s1.61-1.82,2.75-2.28l13.43-5.34v-7.75c-3.1,3.61-6.7,6.38-10.8,8.31-3.28,1.54-6.78,2.46-10.49,2.77-1.51.13-2.81-1.09-2.81-2.61v-1.68c0-1.36,1.05-2.47,2.4-2.59,2.97-.27,5.71-1.03,8.23-2.3,3.18-1.61,6.07-3.9,8.65-6.89l4.65-5.51c.69-.8,1.49-1.41,2.41-1.81s1.89-.6,2.93-.6h3.44c1.03,0,2.01.2,2.93.6s1.72,1,2.41,1.81l4.65,5.51c2.58,2.98,5.47,5.28,8.65,6.89,2.52,1.27,5.26,2.04,8.23,2.3,1.35.12,2.4,1.23,2.4,2.59v1.68c0,1.52-1.3,2.73-2.81,2.61-3.71-.31-7.2-1.23-10.49-2.77-4.1-1.92-7.7-4.69-10.8-8.31v7.75l13.43,5.34c1.15.46,2.07,1.22,2.75,2.28s1.03,2.19,1.03,3.4c0,1.72-.6,3.18-1.81,4.39-1.2,1.2-2.67,1.81-4.39,1.81h-24.79v-1.72c0-1.49.49-2.73,1.46-3.7s2.21-1.46,3.7-1.46h10.33c.52,0,.93-.16,1.25-.47s.47-.73.47-1.25-.16-.93-.47-1.25-.73-.47-1.25-.47h-10.33c-2.41,0-4.45.83-6.11,2.5-1.66,1.66-2.5,3.7-2.5,6.11v1.72h-7.57ZM30.98,13.77c-1.89,0-3.51-.67-4.86-2.02s-2.02-2.97-2.02-4.86.67-3.51,2.02-4.86,2.97-2.02,4.86-2.02,3.51.67,4.86,2.02,2.02,2.97,2.02,4.86-.67,3.51-2.02,4.86c-1.35,1.35-2.97,2.02-4.86,2.02Z"/>
      <path class="cls-1" d="m72.99,4.33l-15.42,15.42c-.87.87-2.27.87-3.14,0l-8.05-8.05c-.87-.87-.87-2.27,0-3.14l.55-.55c.87-.87,2.27-.87,3.14,0l4.36,4.36c.87.87,2.27.87,3.14,0L69.31.65c.87-.87,2.27-.87,3.14,0l.55.55c.87.87.87,2.27,0,3.14Z"/>
    </g>
  </g>
</svg>