<?xml version="1.0" encoding="UTF-8"?>
<svg id="Layer_2" data-name="Layer 2" xmlns="http://www.w3.org/2000/svg" viewBox="0 0 89.28 43.5">
  <defs>
    <style>
      .cls-1 {
        fill: #fff;
        stroke-width: 0px;
      }
    </style>
  </defs>
  <g id="Layer_1-2" data-name="Layer 1">
    <path class="cls-1" d="m34.07,11.01c0,1.79-.62,3.35-1.88,4.61-1.3,1.27-2.83,1.88-4.61,1.88s-3.31-.62-4.58-1.88c-1.27-1.27-1.92-2.83-1.92-4.61s.65-3.31,1.92-4.58c1.27-1.27,2.8-1.92,4.58-1.92s3.31.65,4.61,1.92c1.27,1.27,1.88,2.79,1.88,4.58Z"/>
    <g>
      <path class="cls-1" d="m56.17,17.5c-4.55,1.27-9.1,2.11-13.68,2.57-4.58.46-9.23.68-13.94.68s-9.36-.23-13.91-.68c-3.52-.35-7.04-.93-10.55-1.75-1.75-.41-3.52.61-3.96,2.35l-.05.19c-.43,1.74.61,3.53,2.36,3.94,2.17.51,4.35.93,6.54,1.28,3.25.52,6.53.91,9.81,1.17v13c0,1.79,1.45,3.25,3.25,3.25h13c1.79,0,3.25-1.45,3.25-3.25v-13c3.31-.26,6.59-.65,9.84-1.17,3.25-.52,6.47-1.2,9.65-2.08l-1.62-6.5Z"/>
      <g>
        <path class="cls-1" d="m88.13,5.09c-.77-.76-1.7-1.16-2.78-1.16h-8.26c-.43-1.18-1.15-2.13-2.15-2.85-1-.72-2.12-1.08-3.37-1.08s-2.36.36-3.37,1.08c-1,.73-1.72,1.68-2.14,2.85h-8.27c-1.08,0-2.01.39-2.77,1.16-.77.77-1.16,1.71-1.16,2.78v27.57c0,1.09.38,2.01,1.16,2.78.76.77,1.7,1.16,2.77,1.16h27.57c1.09,0,2.01-.38,2.78-1.16.77-.77,1.16-1.7,1.16-2.78V7.87c0-1.08-.38-2.01-1.16-2.78Zm-17.63-1.23c.28-.28.64-.42,1.06-.42s.78.14,1.06.42c.28.27.42.63.42,1.06s-.14.77-.42,1.06-.63.42-1.06.42-.77-.15-1.06-.42c-.27-.28-.41-.64-.41-1.06s.14-.78.41-1.06Zm14.84,31.58h-27.57V7.87h27.57v27.57Z"/>
        <g>
          <path class="cls-1" d="m73.58,13.62c0,.57-.2,1.05-.59,1.44s-.86.56-1.41.56-1.05-.18-1.44-.56c-.39-.39-.59-.87-.59-1.44s.2-1.04.59-1.43c.39-.39.87-.58,1.44-.58s1.04.19,1.41.58c.39.39.59.86.59,1.43Z"/>
          <rect class="cls-1" x="69.55" y="19.64" width="4.03" height="12.05" rx=".98" ry=".98"/>
        </g>
      </g>
    </g>
  </g>
</svg>