<?xml version="1.0" encoding="UTF-8"?>
<svg id="Layer_2" data-name="Layer 2" fill="#eb8b08" xmlns="http://www.w3.org/2000/svg" viewBox="0 0 16 16.04">
  <defs>
    <style>
      .cls-1 {
        stroke-width: 0px;
      }
    </style>
  </defs>
  <g id="Layer_1-2" data-name="Layer 1">
    <path class="cls-1" d="m0,6.44c0-1.33.3-2.56.89-3.67C1.48,1.66,2.28.73,3.28,0l.94,1.28c-.8.59-1.44,1.33-1.91,2.22s-.71,1.87-.71,2.94H0Zm14.4,0c0-1.07-.24-2.05-.71-2.94s-1.11-1.63-1.91-2.22l.94-1.28c1,.73,1.8,1.66,2.39,2.77.59,1.11.89,2.34.89,3.67h-1.6ZM1.6,13.64v-1.6h1.6v-5.6c0-1.11.33-2.09,1-2.95s1.53-1.42,2.6-1.69v-.56c0-.33.12-.62.35-.85s.52-.35.85-.35.62.12.85.35c.23.23.35.52.35.85v.56c1.07.27,1.93.83,2.6,1.69s1,1.84,1,2.95v5.6h1.6v1.6H1.6Zm6.4,2.4c-.44,0-.82-.16-1.13-.47s-.47-.69-.47-1.13h3.2c0,.44-.16.82-.47,1.13s-.69.47-1.13.47Zm-3.2-4h6.4v-5.6c0-.88-.31-1.63-.94-2.26s-1.38-.94-2.26-.94-1.63.31-2.26.94-.94,1.38-.94,2.26v5.6Z"/>
  </g>
</svg>