<svg xmlns="http://www.w3.org/2000/svg" viewBox="0 0 12.25 12.25"><defs><style>.cls-1{fill:#eb8b08;}</style></defs><g id="Layer_2" data-name="Layer 2"><g id="Layer_1-2" data-name="Layer 1"><path class="cls-1" d="M6.13,6.13A3,3,0,0,1,4,5.23a3,3,0,0,1-.9-2.17A3,3,0,0,1,4,.9,3,3,0,0,1,6.13,0,3,3,0,0,1,8.29.9a3,3,0,0,1,.9,2.16,3,3,0,0,1-.9,2.17A3,3,0,0,1,6.13,6.13ZM0,12.25V10.11a2.24,2.24,0,0,1,1.23-2,11.15,11.15,0,0,1,2.41-.89,10.44,10.44,0,0,1,5,0A11.42,11.42,0,0,1,11,8.08a2.29,2.29,0,0,1,.89.83,2.26,2.26,0,0,1,.33,1.2v2.14Zm1.53-1.53h9.19v-.61a.77.77,0,0,0-.11-.39.75.75,0,0,0-.27-.26,9.67,9.67,0,0,0-2.09-.78A8.81,8.81,0,0,0,4,8.68a9.67,9.67,0,0,0-2.09.78.75.75,0,0,0-.27.26.77.77,0,0,0-.11.39Zm4.6-6.13a1.47,1.47,0,0,0,1.08-.45,1.47,1.47,0,0,0,.45-1.08A1.47,1.47,0,0,0,7.21,2,1.53,1.53,0,0,0,5,2a1.47,1.47,0,0,0-.45,1.08A1.54,1.54,0,0,0,6.13,4.59Z"/></g></g></svg>