<?xml version="1.0" encoding="UTF-8"?>
<svg id="Layer_2" data-name="Layer 2" xmlns="http://www.w3.org/2000/svg" viewBox="0 0 1794.15 937.31">
  <defs>
    <style>
      .cls-1 {
        fill: #000;
      }

      .cls-1, .cls-2 {
        stroke-width: 0px;
      }

      .cls-2 {
        fill: #fcb223;
      }
    </style>
  </defs>
  <g id="Layer_1-2" data-name="Layer 1">
    <g>
      <path class="cls-2" d="M1794.15,24.28v849.57c-19.26,3.17-257.19,41.99-407.82,45.49-157.08,3.63-533.43-92-909.78-16.73-352.63,70.53-463.93,8.88-476.55.84V28.09c16.43,4.45,191.62,49.81,381.64,6.2,199.63-45.82,657.79,42.54,857.41-9.82,192.74-50.56,531.93-3.48,555.09-.18Z"/>
      <path class="cls-1" d="M1191.23,901.79c-190.56-22.4-451.55-53.08-714.92-.41-107.06,21.42-259.74,43.68-379.22,28.27-66.03-8.53-93.14-25.1-97.09-27.7v2.99c7.25,4.49,34.72,19.13,96.37,27.14,26.85,3.48,56.64,5.24,89.05,5.24,18.43,0,37.72-.57,57.78-1.7,69.11-3.9,147.7-14.59,233.6-31.78,262.97-52.59,523.75-21.94,714.14.44,79.47,9.34,148.1,17.43,195.42,16.32,149.19-3.46,386.87-42.02,407.79-45.46v-2.55c-17.93,2.95-257.77,42.02-407.85,45.5-47.16,1.11-115.7-6.96-195.07-16.29ZM1592.16,3.57c-104.22-5.97-250.14-7.41-353.42,19.68-102.3,26.84-274.77,16.51-441.55,6.54-156.6-9.37-318.51-19.07-415.83,3.27-102.92,23.62-201.37,20.59-265.84,13.89C51.02,40.24,6.77,28.63,0,26.79v2.59c8.73,2.34,52.4,13.51,115.21,20.06,64.68,6.73,163.43,9.77,266.72-13.94,96.97-22.25,258.7-12.56,415.13-3.21,166.97,9.99,339.64,20.33,442.33-6.61C1342.33-1.33,1487.96.11,1591.99,6.08c106.14,6.09,191.69,17.99,202.15,19.47v-2.52c-11.93-1.7-96.89-13.42-201.98-19.45Z"/>
    </g>
  </g>
</svg>