<?xml version="1.0" encoding="UTF-8"?>
<svg id="Layer_2" data-name="Layer 2" xmlns="http://www.w3.org/2000/svg" viewBox="0 0 52.64 40.57">
  <defs>
    <style>
      .cls-1 {
        fill: #010101;
      }

      .cls-1, .cls-2 {
        stroke: #231f20;
        stroke-miterlimit: 10;
        stroke-width: .2px;
      }

      .cls-2 {
        fill: #fff;
      }
    </style>
  </defs>
  <g id="Layer_1-2" data-name="Layer 1">
    <path class="cls-1" d="M14.78,40.47c-3.68,0-6.26-.02-6.62-.08l-4.45-.38c-.09,0-.16-.02-.23-.04-.15-.04-.25-.07-.33-.1-.07-.03-.14-.06-.2-.09-.21-.12-.38-.23-.54-.38-.28-.25-.52-.58-.75-.99-.05-.09-.11-.19-.16-.31-.03-.06-.07-.15-.11-.24-.21-.47-.38-1.01-.53-1.65-.04-.14-.07-.27-.09-.42-.24-1.1-.4-2.43-.52-4.06-.02-.25-.04-.51-.05-.76l-.03-.82c-.02-.3-.03-.61-.03-.92v-.11c-.08-3.94.14-8.45.33-12.43.14-2.96.28-5.76.26-7.8.1-5.12,2.37-6.83,3.74-7.39.51-.35,2.16-.69,2.63-.66C8.2.75,27.59.01,28.09.11c2.52,0,4.92.05,6.69.11.32.01.74.02,1.23.02.61,0,1.33.02,2.13.04.34,0,.71.03,1.08.04l1.3.09c.32.03.63.06.94.1l.38.05c.39.05.78.11,1.17.17.03,0,.07.01.12.02l.09.02c.21.04.41.08.61.12.84.17,1.68.4,2.49.7.31.11.62.24.92.37.17.08.34.15.5.24.24.12.46.24.66.37l.09.05c.21.13.4.26.59.4,1.22.91,2.07,2.05,2.5,3.4l.1.36c.17.62.25,1.3.25,2.02h0c-.02,2.01.11,4.75.25,7.66.5,10.79,1.07,23.03-3.25,23.48-.39.06-1.19.18-1.99.3-1.17.01-21.39.21-32.18.21ZM4.77,2.13c-1.2.48-3.24,1.99-3.33,6.74.02,2.05-.12,4.86-.26,7.83-.19,3.97-.41,8.46-.33,12.38v.1c.01.31.02.61.04.91l.03.83c0,.25.03.49.04.74.11,1.6.27,2.9.5,3.97.03.14.05.26.09.39.14.6.3,1.1.49,1.53.03.08.07.16.1.22.05.1.09.18.13.26.19.36.39.62.61.82.12.11.25.19.35.26.08.04.11.06.16.07.06.02.13.04.19.06.1.02.14.03.19.04l4.47.38c1.14.2,28.28-.03,38.65-.13.75-.12,1.55-.24,1.96-.3,3.65-.39,3.03-13.83,2.62-22.73-.14-2.92-.26-5.67-.25-7.69,0-.65-.08-1.27-.23-1.83l-.04-.15c-.02-.06-.04-.13-.05-.2-.38-1.17-1.14-2.19-2.23-3.01-.17-.12-.34-.25-.53-.36-.27-.17-.49-.28-.7-.39-.17-.09-.32-.16-.48-.23-.28-.13-.57-.24-.87-.35-.77-.28-1.57-.51-2.39-.67-.2-.05-.39-.08-.58-.12l-.21-.04c-.37-.07-.76-.12-1.14-.17l-.37-.04c-.31-.03-.62-.07-.92-.1l-1.23-.08c-.41-.02-.77-.04-1.11-.05-.79-.03-1.51-.03-2.12-.04-.5,0-.93-.01-1.25-.02-1.76-.07-4.16-.11-6.73-.12-.79-.05-20.08.61-20.91.7h-.05s-.05,0-.05,0c-.29-.05-1.89.35-2.13.52l-.06.09h-.06Z"/>
    <g>
      <path class="cls-2" d="M12.35,23.34s-1.81-2.19.51-4.23c1.71-1.5,3.29-.4,4.01.3.31.3.55.66.7,1.07.29.81.5,2.24-.99,3.38-2.19,1.67-3.96-.11-4.23-.51Z"/>
      <path class="cls-1" d="M14.71,24.95c-.16,0-.32-.01-.48-.04-1.17-.19-1.98-1.02-2.2-1.34-.18-.23-1.89-2.59.57-4.76,1.99-1.75,3.84-.37,4.55.31.36.35.63.76.8,1.22.31.87.59,2.53-1.12,3.83-.68.52-1.39.78-2.11.78ZM14.65,18.76c-.48,0-1,.18-1.53.65-2,1.76-.53,3.61-.47,3.69l.02.03c.12.18.76.87,1.68,1.02.66.11,1.33-.09,1.99-.59,1.24-.94,1.15-2.11.85-2.93-.12-.34-.33-.65-.6-.92-.51-.49-1.18-.94-1.94-.94Z"/>
    </g>
    <g>
      <path class="cls-2" d="M21.79,29.89v2.02c0,.22-.19.4-.43.4h-13.26c-.24,0-.43-.18-.43-.4v-2.02c0-1.43,1.32-2.48,2.91-3.15,1.41-.6,3.04-.89,4.15-.89s2.75.3,4.17.9c1.58.67,2.89,1.72,2.89,3.14Z"/>
      <path class="cls-1" d="M21.36,32.71h-13.26c-.45,0-.83-.36-.83-.8v-2.02c0-1.41,1.12-2.65,3.16-3.51,1.33-.56,3.02-.92,4.3-.92s2.99.36,4.32.93c2.02.85,3.13,2.1,3.13,3.5v2.02c0,.44-.37.8-.83.8ZM14.73,26.24c-1.19,0-2.76.34-3.99.86-1,.42-2.67,1.34-2.67,2.78v2.02h13.3s.03-2.02.03-2.02c0-1.44-1.66-2.35-2.65-2.77-1.51-.64-3.11-.87-4.02-.87Z"/>
    </g>
    <g>
      <g>
        <path class="cls-1" d="M44.87,19.15h-14.56c-.24,0-.44-.18-.44-.4s.2-.4.44-.4h14.56c.24,0,.44.18.44.4s-.2.4-.44.4Z"/>
        <path class="cls-1" d="M44.87,23.43h-14.56c-.24,0-.44-.18-.44-.4s.2-.4.44-.4h14.56c.24,0,.44.18.44.4s-.2.4-.44.4Z"/>
        <path class="cls-1" d="M44.87,27.72h-14.56c-.24,0-.44-.18-.44-.4s.2-.4.44-.4h14.56c.24,0,.44.18.44.4s-.2.4-.44.4Z"/>
      </g>
      <path class="cls-1" d="M44.87,32h-14.56c-.24,0-.44-.18-.44-.4s.2-.4.44-.4h14.56c.24,0,.44.18.44.4s-.2.4-.44.4Z"/>
    </g>
    <rect class="cls-1" x="1.14" y="10.68" width="50.47" height=".79"/>
  </g>
</svg>