<?xml version="1.0" encoding="UTF-8"?>
<svg id="Layer_2" data-name="Layer 2" xmlns="http://www.w3.org/2000/svg" viewBox="0 0 44.03 48.95">
  <defs>
    <style>
      .cls-1 {
        fill: #010101;
      }

      .cls-1, .cls-2 {
        stroke: #231f20;
        stroke-miterlimit: 10;
        stroke-width: .2px;
      }

      .cls-2 {
        fill: #fff;
      }
    </style>
  </defs>
  <g id="Layer_1-2" data-name="Layer 1">
    <g>
      <path class="cls-2" d="M43.58,38.51v7.6s.08,2.4-2.96,2.4H3.41c-3.03,0-2.95-2.4-2.95-2.4v-7.6c-.13-2.27.34-2.8.34-2.8,1.55-1.89,2.92-.91,3.62-.4.69.52,1.47,1.25,3.83,1.16,2.35-.09,3.62-2.48,3.9-3.05.29-.57.87-3.66-1.61-5.55-2.47-1.9-5.39-.66-6.12.22-.73.87-1.89.82-2.88.36-.99-.46-1.08-2.03-1.08-2.03v-9.13c0-2.84,3.45-2.4,3.45-2.4h7.95c-.05-.09-.13-.28-.21-.53.01-.01,0-.01,0-.03-.44-2.52-1.51-12.95,10.32-13.86h.11c12.36-.9,11.11,11.21,10.29,13.95-.07.21-.13.37-.19.46h7.95s3.45-.44,3.45,2.4v9.13s-.11,1.57-1.1,2.03c-.98.46-2.14.52-2.87-.36-.73-.89-3.65-2.13-6.13-.22-2.48,1.89-1.89,4.98-1.61,5.55.29.57,1.56,2.96,3.91,3.05,2.35.09,3.14-.65,3.83-1.16s2.07-1.49,3.62.4c0,0,.46.53.34,2.8Z"/>
      <path class="cls-1" d="M40.62,48.85H3.41c-1.11,0-1.96-.3-2.54-.9-.77-.79-.74-1.81-.74-1.85v-7.58c-.13-2.28.33-2.92.43-3.03,1.75-2.15,3.43-.91,4.07-.44l.15.11c.65.5,1.41,1.07,3.47.98,2.09-.08,3.29-2.21,3.61-2.86.19-.36.87-3.32-1.51-5.13-2.23-1.72-4.97-.66-5.65.17-.74.89-1.97,1.06-3.28.45-1.16-.54-1.27-2.25-1.28-2.32v-9.15c0-.84.27-1.51.82-1.99,1.11-.98,2.93-.76,3.01-.75h7.41s-.02-.06-.03-.09l-.06-.19.03-.03c-.32-1.9-.72-6.58,2.01-10.09C15.14,1.8,18.05.45,21.94.15h.13c4.03-.3,7.04.75,8.93,3.11,3.01,3.75,2.2,9.54,1.68,11.27,0,0,0,.02,0,.03h7.45s1.86-.22,2.97.75c.54.48.82,1.15.82,1.99v9.13c0,.1-.13,1.8-1.29,2.34-1.28.61-2.53.44-3.27-.45-.63-.77-3.31-1.97-5.67-.17-2.38,1.81-1.7,4.75-1.51,5.13.53,1.03,1.71,2.79,3.62,2.86,2.07.08,2.85-.51,3.48-.99l.14-.11c.63-.47,2.3-1.72,4.08.45.09.1.54.74.42,3.02v7.59s.02,1.04-.74,1.84c-.58.6-1.44.9-2.55.9ZM2.71,34.94c-.5,0-1.05.26-1.65.99,0,0-.38.55-.27,2.57v7.62s-.01.79.56,1.38c.45.46,1.14.69,2.05.69h37.21c.93,0,1.62-.24,2.07-.7.57-.59.55-1.35.55-1.36v-7.62c.11-2.03-.27-2.57-.27-2.57-1.37-1.67-2.53-.8-3.16-.34l-.13.1c-.67.51-1.59,1.22-3.91,1.13-2.25-.09-3.59-2.06-4.2-3.23-.26-.53-1.04-3.88,1.71-5.97,2.53-1.94,5.68-.83,6.59.28.79.95,2.09.44,2.46.27.8-.37.9-1.74.9-1.75v-9.11c0-.65-.19-1.13-.59-1.48-.88-.78-2.47-.59-2.48-.59h-8.57s.29-.5.29-.5c.02-.03.07-.14.16-.4.62-2.06,1.05-7.39-1.56-10.65-1.74-2.18-4.56-3.14-8.38-2.86h-.13c-3.67.28-6.41,1.55-8.13,3.75-2.65,3.4-2.12,8.18-1.87,9.66l.11.17-.05.05c.05.14.09.23.12.28l.29.5H3.91c-.06,0-1.64-.19-2.53.59-.4.35-.59.83-.59,1.48v9.13h0s.1,1.36.89,1.73c.38.18,1.69.68,2.48-.27.91-1.11,4.06-2.21,6.58-.28,2.6,1.98,2.08,5.23,1.71,5.97-.36.73-1.73,3.14-4.18,3.23-2.31.09-3.24-.61-3.9-1.12l-.14-.11c-.46-.33-.96-.65-1.51-.65Z"/>
    </g>
    <g>
      <path class="cls-2" d="M23.96,23.9v10.56c0,.64-.52,1.16-1.16,1.16h-.39c-.31,0-.6-.14-.82-.34-.19-.22-.34-.51-.34-.82v-7.66c0-.22-.24-.36-.43-.25l-2.18,1.29c-.29.19-.6.24-.89.14-.29-.07-.53-.24-.7-.53l-.19-.34c-.31-.51-.19-1.14.27-1.5l3.31-1.98,1.23-.72c.74-.36,1.18-.26,1.18-.26.39.09.56.24.78.43.19.22.34.51.34.82Z"/>
      <path class="cls-1" d="M22.8,35.94h-.39c-.36,0-.73-.15-1.03-.42-.3-.33-.44-.7-.44-1.06v-7.66l-2.13,1.31c-.36.24-.77.3-1.15.17-.36-.09-.67-.32-.87-.67l-.19-.34c-.39-.63-.25-1.44.34-1.9l4.58-2.73c.84-.41,1.35-.31,1.41-.3.48.11.7.31.92.5.3.33.44.7.44,1.06v10.56c0,.81-.66,1.47-1.47,1.47ZM20.97,26.2c.1,0,.21.03.3.08.19.11.3.3.3.52v7.66c0,.28.16.5.26.61.08.07.31.23.59.23h.39c.46,0,.84-.38.84-.84v-10.56c0-.28-.16-.5-.26-.61-.16-.14-.29-.25-.62-.33h0s-.36-.06-.96.24l-4.52,2.69c-.3.24-.38.7-.16,1.06l.2.35c.12.2.28.33.5.38.22.07.44.03.64-.1l2.19-1.3c.09-.06.2-.08.31-.08Z"/>
    </g>
  </g>
</svg>