<?xml version="1.0" encoding="UTF-8"?>
<svg id="Layer_2" data-name="Layer 2" xmlns="http://www.w3.org/2000/svg" viewBox="0 0 103.01 102.59">
  <defs>
    <style>
      .cls-1 {
        fill: #010101;
      }

      .cls-1, .cls-2, .cls-3 {
        stroke-width: 0px;
      }

      .cls-2 {
        fill: #000;
      }

      .cls-3 {
        fill: #fcb120;
      }
    </style>
  </defs>
  <g id="Layer_1-2" data-name="Layer 1">
    <g>
      <g>
        <path class="cls-3" d="M57.56,3.24s45.61,4.25,42.46,54.15c-2.31,36.64-33.01,42.06-49.16,42.35-6.98.13-13.88-1.25-20.19-4.22C18.17,89.63-.65,75.65,3.4,45.71,9.37,1.61,49.84,1.79,57.56,3.24Z"/>
        <path class="cls-2" d="M14.77,14.29c1.68-1.68,3.5-3.24,5.47-4.65C34.78-.83,52.67-.52,57.97.44c3.01.35,48.07,6.58,44.87,57.14-2.51,39.81-37.17,44.74-51.94,44.99-7.64.13-14.85-1.37-21.45-4.48C16.82,92.13-3.73,77.35.59,45.34c1.77-12.96,6.53-23.39,14.18-31.04ZM86.16,84.32c5.93-5.93,10.24-14.59,11.03-27.08C100.12,10.75,59.05,6.24,57.29,6.07l-.26-.03c-3.69-.69-20.23-1.35-33.46,8.21-9.62,6.89-15.43,17.62-17.34,31.85-3.66,27.01,11.93,40.39,25.65,46.85,5.81,2.74,12.18,4.08,18.92,3.96,10.36-.19,25.23-2.46,35.37-12.59Z"/>
      </g>
      <path class="cls-1" d="M49.25,20.38h7.4c3.03,0,5.41,2.45,5.41,5.58v20.06h4.94c2.19,0,4.12,1.12,5.16,3.01,1.06,1.89,1,4.13-.16,6.01l-13.93,24.27c-2.04,3.52-8.17,3.54-10.24,0l-13.98-24.35c-1.11-1.78-1.17-4.03-.12-5.92,1.05-1.88,2.98-3,5.16-3h4.95v-20.06c0-3.13,2.37-5.58,5.4-5.58ZM52.64,76.5l7.69-12.16,6.89-12.13-10.72-.61v-25.63h-7.25s.16,25.63.16,25.63h-10.51c-.1,0-.22.02-.29.15l14.04,24.76Z"/>
    </g>
  </g>
</svg>