<?xml version="1.0" encoding="UTF-8"?>
<svg id="Layer_2" data-name="Layer 2" xmlns="http://www.w3.org/2000/svg" viewBox="0 0 216.02 33.24">
  <defs>
    <style>
      .cls-1 {
        fill: #000;
      }

      .cls-1, .cls-2 {
        stroke-width: 0px;
      }

      .cls-2 {
        fill: #fcb223;
      }
    </style>
  </defs>
  <g id="Layer_1-2" data-name="Layer 1">
    <g>
      <g>
        <path class="cls-1" d="M140.26,16.98l-2.68,11.78h-1.1c-2.08,0-2.49-2.06-2.69-2.8l-2.08-8.98v15.92h-3.53V.34h2.18c1.39,0,1.59,1.27,1.59,1.27l4.13,19.73,3.92-19.78c.05-.15.3-1.23,1.59-1.23h2.18v32.56h-3.53v-15.92Z"/>
        <path class="cls-1" d="M162.37,0c2.39.1,4.32,2.01,4.32,4.37v24.56c-.05,2.36-1.94,4.22-4.32,4.32h-2.73c-2.44,0-4.42-1.96-4.48-4.32V4.37c0-2.41,1.99-4.37,4.48-4.37h2.73ZM161.17,30.15c1.05,0,1.89-.83,1.89-1.91V5c0-1.08-.84-1.91-1.89-1.91h-.54c-1.05.05-1.89.88-1.89,1.91v23.23c0,1.03.84,1.87,1.89,1.91h.54Z"/>
        <path class="cls-1" d="M184.98,32.9c-1.79,0-2.09-2.11-2.14-2.4L177.87.34h2.73c.25,0,.85.19,1.04,1.33l3.33,21.55,3.53-22.87h3.57l-5.32,32.56h-1.78Z"/>
        <path class="cls-1" d="M216.02,29.41c-.4.88-1,2.26-1.14,2.55-.25.44-.8.93-1.94.93h-7.95V1.33c.05-.54.49-.98,1.09-.98h9.29l-1.19,2.55c-.2.44-.75.98-1.89.98h-2.88c-.5,0-.85.34-.85.84v10.21h5.37c-.4.88-1,2.3-1.15,2.6-.25.44-.74.93-1.88.93h-1.49c-.45,0-.85.4-.85.84v10.13h7.46Z"/>
        <path class="cls-1" d="M6.21.36c2.39,0,4.52,1.91,4.52,4.32v8.88c0,3.34-1.64,5.75-5.07,5.75h-2.13v13.59H1c-.84,0-1-.49-1-.74V.36h6.21ZM7.31,5.32c-.1-.93-.9-1.67-1.89-1.67h-1.88v12.37h1.88c1,0,1.79-.73,1.89-1.67V5.32Z"/>
        <path class="cls-1" d="M36.18,29.42c-.4.88-1,2.26-1.14,2.55-.25.44-.8.93-1.94.93h-8.55V.36h2.49c.59.05,1.1.49,1.1,1.08v27.98h8.05Z"/>
        <path class="cls-1" d="M57.14,32.9h-3.93l-3.13-21.84-3.13,21.84h-3.92L48.29.36h1.94c1.49,0,1.74.93,1.89,1.86l5.02,30.68Z"/>
        <path class="cls-1" d="M71.39,32.9c-.55,0-1-.44-1.04-1.03v-11.43L66.08.36h2.63c.1,0,1,.05,1.14,1.18l2.29,13.01,2.29-13.01c.15-1.13,1.05-1.18,1.15-1.18h2.63l-4.28,20.07v12.46h-2.53Z"/>
        <path class="cls-1" d="M93.28.36c1.05,0,1.44.79,1.44,1.37v22.33h-2.53c-.85,0-1-.49-1.04-.74V.36h2.13Z"/>
        <path class="cls-1" d="M113.57,24.07c-1.94,0-2.24-1.52-2.39-2.21l-3.83-11.65v13.86h-3.57V.36h1.64c1.99,0,2.34.93,2.54,1.91l3.67,12.54V.36h3.58v23.7h-1.64Z"/>
      </g>
      <path class="cls-2" d="M91.18,30.82c0-1.03.55-1.42.96-1.42h23.07v2.5c0,.84-.34.98-.52,1.03h-23.52v-2.11Z"/>
    </g>
  </g>
</svg>