<?xml version="1.0" encoding="UTF-8"?>
<svg id="Layer_2" data-name="Layer 2" xmlns="http://www.w3.org/2000/svg" viewBox="0 0 67.75 67.47">
  <defs>
    <style>
      .cls-1 {
        fill: #63acdf;
      }

      .cls-1, .cls-2, .cls-3 {
        stroke-width: 0px;
      }

      .cls-2 {
        fill: #000;
      }

      .cls-3 {
        fill: #fcb120;
      }
    </style>
  </defs>
  <g id="Layer_1-2" data-name="Layer 1">
    <g>
      <path class="cls-3" d="M38.09.29s31.75,2.96,29.56,37.7c-1.61,25.51-22.98,29.27-34.22,29.48-4.86.09-9.66-.87-14.05-2.94C10.67,60.43-2.43,50.7.39,29.85,4.54-.84,32.71-.72,38.09.29Z"/>
      <g>
        <g>
          <g>
            <g>
              <g>
                <path class="cls-1" d="M34.32,22.78c-.46-1.93-1.99-1.56-2.15-1.36-.18.2-1.54,1.42-2.87,7.34,0,0-.31,1.59-.94,1.28-.58-.29-5.9-2.66-6.62-2.98-.01-.13.04-.27.15-.38.94-.83,1.83-2.08,2.27-2.74.53-.78,1.41-4.69-1.43-6.91-2.85-2.22-4.78-1.88-6.48-1.97-1.69-.09-5.59,1.72-5.79,6.19-.14,3.4,2.04,5.15,3.1,5.8.27.16.29.53.06.73-.54.46-1.54,1.29-3.09,2.54-2.54,2.03-4.32,3.72-4.17,5.82.16,2.1,4,6.65,5.58,7.31.25.1.48.14.67.14-.07.55-.11.88-.11.88,0,0-2.34,11.35-.16,11.39,2.89.04,4.22-12.09,6.22-11.87,1.54.17,2.02,1.95,3.01,7.23.98,5.24,2.65,4.63,2.65,4.63,0,0,1.23-.07,1.55-2.12.15-.96-.38-5.6-.99-10.31-.04-.27-.39-2.93-.39-2.93-.44-3.24-.85-6.13-1.04-7.38-.04-.07-.05-.98.57-.98.12,0,.27.03.44.09,1.08.39,5.56,3.03,6.53,1.61.96-1.42,3.88-9.13,3.43-11.06ZM13.01,40.56c-1.15-1.52-2.96-3.77-3.06-4.32-.11-.58,1.92-2.35,3.06-3.31.31-.26.77-.03.75.37-.09,1.76-.44,4.8-.75,7.26Z"/>
                <path class="cls-2" d="M24.06,56.25c-.17,0-.4-.04-.67-.19-.96-.54-1.69-2.15-2.19-4.77-.98-5.24-1.46-6.78-2.68-6.92h-.02c-.61,0-1.52,2.92-2.12,4.85-1.08,3.45-2.19,7.02-4.02,7.02h-.02c-.3,0-.56-.14-.75-.39-1.4-1.75.35-10.46.55-11.45h0s.03-.17.06-.47c-.13-.03-.26-.07-.38-.12-1.66-.68-5.64-5.37-5.81-7.63-.18-2.35,1.85-4.17,4.31-6.14,1.54-1.24,2.54-2.07,3.08-2.53h0s-.01-.13-.01-.13c-1.03-.64-3.43-2.51-3.28-6.14.11-2.45,1.27-4,2.22-4.87,1.36-1.23,3-1.74,3.96-1.69.25.01.5.02.75.02,1.52.02,3.41.06,5.93,2.03,3.02,2.35,2.19,6.44,1.51,7.42-.79,1.17-1.54,2.09-2.23,2.71,3.81,1.7,5.92,2.65,6.28,2.83.1-.06.31-.56.4-1.01.59-2.62,1.57-6.03,2.93-7.49.24-.28.82-.39,1.32-.28.43.1,1.2.47,1.51,1.77h0c.5,2.15-2.57,10.01-3.48,11.36-.95,1.39-3.97-.05-5.96-1.01-.44-.21-.79-.38-1.01-.46-.21-.08-.35-.1-.41-.03-.1.11-.12.39-.11.47.19,1.29.61,4.18,1.05,7.42,0,0,.36,2.66.39,2.93,1.06,8.22,1.08,9.88.99,10.42-.33,2.11-1.57,2.39-1.85,2.43-.05.01-.13.03-.23.03ZM18.5,43.61s.07,0,.11,0c1.88.21,2.38,2.46,3.34,7.53.57,3.05,1.35,3.96,1.77,4.22.24.15.39.12.39.12.12-.02,1.03-.13,1.29-1.82.12-.76-.22-4.19-1-10.2-.04-.27-.39-2.93-.39-2.93-.43-3.23-.85-6.11-1.03-7.37-.05-.24,0-.69.18-.99.27-.42.76-.52,1.33-.3.22.08.6.26,1.07.48,1.33.64,4.43,2.12,5.02,1.27.89-1.32,3.79-8.98,3.37-10.76-.15-.61-.42-1-.8-1.16-.35-.14-.67-.05-.74,0-.98,1.06-1.95,3.59-2.76,7.15-.06.28-.29,1.27-.83,1.54-.2.1-.43.1-.64,0-.35-.17-2.49-1.13-6.34-2.86l-.46-.21-.02-.22c-.02-.26.08-.51.28-.69.66-.58,1.42-1.5,2.21-2.67.49-.72,1.23-4.39-1.35-6.4-2.33-1.82-4-1.84-5.49-1.87-.27,0-.53,0-.78-.02-.04,0-.07,0-.11,0-.84,0-2.21.5-3.31,1.49-.85.77-1.88,2.15-1.98,4.34-.13,3.11,1.77,4.76,2.92,5.47.23.14.37.37.39.64.02.27-.09.53-.29.7-.54.46-1.55,1.3-3.1,2.55-2.72,2.17-4.16,3.69-4.03,5.5.15,1.96,3.91,6.39,5.35,6.99.23.09.41.11.52.11h.42l-.05.42c-.06.56-.12.89-.12.89-.75,3.62-1.59,9.74-.7,10.85.08.1.14.1.19.11,1.28,0,2.45-3.75,3.31-6.49,1.06-3.41,1.74-5.38,2.84-5.38ZM13.27,41.52l-1.23-1.61c-1.47-1.91-2.37-3.1-2.46-3.6-.05-.29-.16-.88,3.19-3.67.26-.21.61-.26.9-.11.3.15.48.45.46.78-.1,1.96-.52,5.41-.75,7.29l-.11.91ZM13.25,33.22c-2.26,1.88-2.91,2.76-2.93,2.98.08.34,1.48,2.17,2.32,3.26l.11.15c.24-1.93.55-4.68.63-6.32l-.13-.06Z"/>
              </g>
              <g>
                <circle class="cls-2" cx="21.03" cy="20.57" r=".75"/>
                <circle class="cls-2" cx="15.58" cy="20.57" r=".75"/>
                <path class="cls-2" d="M18.5,24.88c-.72,0-1.56-.23-2.42-.99-.16-.14-.17-.38-.03-.53.14-.16.38-.17.53-.03,1.77,1.57,3.41.38,3.48.33.17-.12.4-.09.53.07.12.17.09.4-.07.53-.01.01-.85.63-2.02.63Z"/>
              </g>
            </g>
            <g>
              <path class="cls-1" d="M13.01,40.56s2.07,2.95-.39,3.04"/>
              <path class="cls-2" d="M12.63,43.97l-.03-.75c.42-.01.69-.12.79-.32.25-.51-.35-1.65-.69-2.13l.62-.43c.13.19,1.26,1.85.74,2.89-.23.46-.71.71-1.43.74Z"/>
            </g>
          </g>
          <g>
            <path class="cls-1" d="M13.04,40.34s4.33,2.35,11.38.4"/>
            <path class="cls-2" d="M18.94,41.89c-3.76,0-5.95-1.16-6.08-1.23l.36-.66s4.3,2.25,11.1.37l.2.73c-2.12.59-3.99.79-5.58.79Z"/>
          </g>
          <g>
            <path class="cls-1" d="M25.97,28.95s-.14,2.6.4,4.21"/>
            <path class="cls-2" d="M26.01,33.28c-.56-1.66-.43-4.24-.42-4.35l.75.04s-.13,2.54.38,4.06l-.71.24Z"/>
          </g>
          <g>
            <path class="cls-1" d="M8.76,31.83s.27,2.43,2.59,2.55"/>
            <path class="cls-2" d="M11.34,34.76c-2.09-.11-2.84-1.93-2.95-2.88l.75-.08c.01.09.27,2.11,2.24,2.22l-.04.75Z"/>
          </g>
          <g>
            <path class="cls-1" d="M11.45,51.82s.97,1.57,3.45.65"/>
            <path class="cls-2" d="M13.45,53.13c-1.6,0-2.31-1.1-2.31-1.11l.64-.4c.03.05.86,1.3,3,.49l.26.7c-.6.23-1.13.31-1.59.31Z"/>
          </g>
          <g>
            <path class="cls-1" d="M21.85,52.48s1.62,1.29,3.9-.35"/>
            <path class="cls-2" d="M23.45,53.35c-1.1,0-1.79-.53-1.83-.57l.47-.59c.06.04,1.45,1.08,3.45-.36l.44.61c-.96.69-1.82.91-2.52.91Z"/>
          </g>
          <path class="cls-2" d="M17.9,31.68c-3.19,0-5.69-2.45-5.8-2.56l.53-.53s2.63,2.62,5.75,2.32c1.81-.16,3.44-1.26,4.85-3.26l.61.43c-1.55,2.2-3.37,3.4-5.41,3.58-.18.01-.36.02-.54.02Z"/>
        </g>
        <g>
          <g>
            <g>
              <g>
                <path class="cls-1" d="M37.51,33.94c.97,1.42,5.45-1.22,6.53-1.61.17-.07.32-.09.44-.09.63,0,.61.9.57.98-.19,1.26-.6,4.14-1.04,7.38,0,0-.36,2.66-.39,2.93-.61,4.71-1.14,9.35-.99,10.31.32,2.05,1.55,2.12,1.55,2.12,0,0,1.66.6,2.65-4.63.99-5.28,1.47-7.05,3.01-7.23,2-.22,3.34,11.91,6.22,11.87,2.18-.03-.16-11.39-.16-11.39,0,0-.05-.33-.11-.88.19,0,.42-.04.67-.14,1.58-.65,5.42-5.21,5.58-7.31.16-2.09-1.63-3.79-4.17-5.82-1.54-1.24-2.55-2.08-3.09-2.54-.23-.2-.21-.57.06-.73,1.06-.65,3.24-2.41,3.1-5.8-.19-4.47-4.1-6.29-5.79-6.19-1.69.09-3.63-.25-6.48,1.97-2.85,2.22-1.97,6.14-1.43,6.91.44.66,1.33,1.91,2.27,2.74.11.1.16.24.15.38-.71.32-6.03,2.69-6.62,2.98-.63.31-.94-1.28-.94-1.28-1.33-5.93-2.7-7.14-2.87-7.34-.17-.2-1.69-.57-2.15,1.36-.45,1.93,2.47,9.64,3.43,11.06ZM54.65,33.4c-.02-.39.44-.63.75-.37,1.14.95,3.17,2.73,3.06,3.31-.11.55-1.91,2.8-3.06,4.32-.31-2.46-.66-5.5-.75-7.26Z"/>
                <path class="cls-2" d="M44.11,56.33c-.28-.04-1.52-.32-1.85-2.43-.08-.53-.07-2.2.99-10.42.04-.27.39-2.93.39-2.93.44-3.24.85-6.13,1.05-7.42.01-.09-.01-.36-.11-.47-.06-.07-.21-.05-.41.03-.21.08-.57.25-1.01.46-2,.96-5.01,2.4-5.96,1.01-.91-1.35-3.99-9.2-3.48-11.35h0c.31-1.3,1.08-1.67,1.51-1.77.5-.12,1.08,0,1.32.28,1.36,1.45,2.34,4.87,2.93,7.49.09.45.3.96.4,1.01.36-.18,2.47-1.13,6.28-2.83-.69-.63-1.44-1.54-2.23-2.71-.67-.98-1.5-5.07,1.51-7.42,2.52-1.97,4.41-2,5.93-2.03.26,0,.51,0,.75-.02.96-.06,2.6.45,3.96,1.69.96.87,2.12,2.41,2.22,4.87.15,3.63-2.24,5.5-3.28,6.14v.13s-.01,0-.01,0c.54.46,1.54,1.29,3.08,2.53,2.46,1.97,4.48,3.79,4.31,6.14-.17,2.26-4.16,6.94-5.81,7.63-.13.05-.26.09-.38.12.04.3.06.47.06.47h0c.2.99,1.95,9.71.55,11.45-.2.25-.46.38-.75.39h-.02c-1.83,0-2.95-3.57-4.02-7.02-.6-1.94-1.51-4.85-2.12-4.85h-.02c-1.22.14-1.7,1.68-2.68,6.92-.49,2.62-1.23,4.22-2.19,4.77-.27.15-.5.19-.67.19-.1,0-.18-.01-.23-.03ZM52.74,49.1c.86,2.74,2.03,6.49,3.31,6.49.05,0,.11,0,.19-.11.89-1.11.04-7.23-.7-10.85,0,0-.05-.33-.12-.89l-.05-.42h.42c.11,0,.29-.02.52-.11,1.44-.59,5.2-5.02,5.35-6.99.14-1.81-1.31-3.32-4.03-5.5-1.55-1.25-2.55-2.08-3.1-2.55-.2-.17-.31-.44-.29-.7.02-.27.17-.5.39-.64,1.14-.7,3.05-2.35,2.92-5.47-.09-2.19-1.13-3.57-1.98-4.34-1.1-1-2.46-1.49-3.31-1.49-.04,0-.07,0-.11,0-.25.01-.51.02-.78.02-1.48.03-3.16.05-5.49,1.87-2.59,2.02-1.85,5.69-1.35,6.4.78,1.17,1.55,2.09,2.21,2.67.2.17.3.43.28.69l-.02.22-.46.21c-3.86,1.72-5.99,2.68-6.34,2.86-.21.1-.43.11-.64,0-.55-.27-.78-1.25-.83-1.54-.8-3.56-1.78-6.09-2.76-7.15-.06-.04-.39-.13-.74,0-.38.16-.65.55-.8,1.16-.41,1.78,2.49,9.45,3.37,10.76.59.85,3.69-.63,5.02-1.27.47-.22.84-.4,1.07-.48.57-.22,1.06-.12,1.33.3.19.31.24.75.18.99-.18,1.26-.6,4.14-1.03,7.37,0,0-.36,2.65-.39,2.93-.78,6.01-1.11,9.45-1,10.2.26,1.69,1.17,1.8,1.29,1.82,0,0,.16.04.39-.12.42-.27,1.2-1.17,1.77-4.22.95-5.07,1.45-7.32,3.34-7.53.04,0,.07,0,.11,0,1.1,0,1.77,1.97,2.84,5.38ZM55.02,40.71c-.24-1.88-.65-5.34-.75-7.29-.01-.33.16-.63.46-.78.3-.15.64-.1.9.11,3.36,2.79,3.25,3.38,3.19,3.67-.1.5-1,1.7-2.46,3.6l-1.23,1.61-.11-.91ZM55.02,33.38c.09,1.65.4,4.39.63,6.32l.11-.15c.84-1.09,2.24-2.92,2.32-3.26-.02-.22-.67-1.1-2.93-2.98l-.13.06Z"/>
              </g>
              <g>
                <circle class="cls-2" cx="47.37" cy="20.67" r=".75"/>
                <circle class="cls-2" cx="52.82" cy="20.67" r=".75"/>
                <path class="cls-2" d="M49.91,24.99c.72,0,1.56-.23,2.42-.99.16-.14.17-.38.03-.53-.14-.16-.38-.17-.53-.03-1.77,1.57-3.41.38-3.48.33-.17-.12-.4-.09-.53.07-.12.17-.09.4.07.53.01.01.85.63,2.02.63Z"/>
              </g>
            </g>
            <g>
              <path class="cls-1" d="M55.4,40.66s-2.07,2.95.39,3.04"/>
              <path class="cls-2" d="M55.78,44.08l.03-.75c-.42-.01-.69-.12-.79-.32-.25-.51.35-1.65.69-2.13l-.62-.43c-.13.19-1.26,1.85-.74,2.89.23.46.71.71,1.43.74Z"/>
            </g>
          </g>
          <g>
            <path class="cls-1" d="M55.37,40.44s-4.33,2.35-11.38.4"/>
            <path class="cls-2" d="M49.47,42c3.76,0,5.95-1.16,6.08-1.23l-.36-.66s-4.3,2.25-11.1.37l-.2.73c2.12.59,3.99.79,5.58.79Z"/>
          </g>
          <g>
            <path class="cls-1" d="M42.44,29.06s.14,2.6-.4,4.21"/>
            <path class="cls-2" d="M42.39,33.38c.56-1.66.43-4.24.42-4.35l-.75.04s.13,2.54-.38,4.06l.71.24Z"/>
          </g>
          <g>
            <path class="cls-1" d="M59.64,31.94s-.27,2.43-2.59,2.55"/>
            <path class="cls-2" d="M57.07,34.87c2.09-.11,2.84-1.93,2.95-2.88l-.75-.08c-.01.09-.27,2.11-2.24,2.22l.04.75Z"/>
          </g>
          <g>
            <path class="cls-1" d="M56.95,51.93s-.97,1.57-3.45.65"/>
            <path class="cls-2" d="M54.96,53.24c1.6,0,2.31-1.1,2.31-1.11l-.64-.4c-.03.05-.86,1.3-3,.49l-.26.7c.6.23,1.13.31,1.59.31Z"/>
          </g>
          <g>
            <path class="cls-1" d="M46.55,52.59s-1.62,1.29-3.9-.35"/>
            <path class="cls-2" d="M44.95,53.45c1.1,0,1.79-.53,1.83-.57l-.47-.59c-.06.04-1.45,1.08-3.45-.36l-.44.61c.96.69,1.82.91,2.52.91Z"/>
          </g>
          <path class="cls-2" d="M50.51,31.79c3.19,0,5.69-2.45,5.8-2.56l-.53-.53s-2.63,2.62-5.75,2.32c-1.81-.16-3.44-1.26-4.85-3.26l-.61.43c1.55,2.2,3.37,3.4,5.41,3.58.18.01.36.02.54.02Z"/>
        </g>
      </g>
    </g>
  </g>
</svg>