<?xml version="1.0" encoding="UTF-8"?>
<svg id="Layer_2" data-name="Layer 2" xmlns="http://www.w3.org/2000/svg" viewBox="0 0 118.7 65.65">
  <defs>
    <style>
      .cls-1 {
        fill: #010101;
      }

      .cls-1, .cls-2, .cls-3, .cls-4, .cls-5 {
        stroke-width: 0px;
      }

      .cls-2 {
        fill: #fab121;
      }

      .cls-3 {
        fill: #fab11f;
      }

      .cls-4 {
        fill: #64abde;
      }

      .cls-5 {
        fill: #fff;
      }
    </style>
  </defs>
  <g id="Layer_1-2" data-name="Layer 1">
    <g>
      <g>
        <rect class="cls-1" x=".59" y=".59" width="117.52" height="64.47" rx="2.03" ry="2.03"/>
        <path class="cls-3" d="M113.29,65.65H5.41c-2.99,0-5.41-2.43-5.41-5.41V5.41C0,2.43,2.43,0,5.41,0h107.88c2.98,0,5.41,2.43,5.41,5.41v54.82c0,2.99-2.43,5.41-5.41,5.41ZM5.41,1.19C3.08,1.19,1.19,3.08,1.19,5.41v54.82c0,2.33,1.9,4.23,4.23,4.23h107.88c2.33,0,4.22-1.9,4.22-4.23V5.41c0-2.33-1.9-4.23-4.22-4.23H5.41Z"/>
      </g>
      <g>
        <path class="cls-5" d="M72.05,23.51l-1.06,4.64h-.43c-.82,0-.98-.81-1.06-1.1l-.82-3.54v6.27h-1.39v-12.82h.86c.55,0,.63.5.63.5l1.63,7.77,1.54-7.79c.02-.06.12-.48.63-.48h.86v12.82h-1.39v-6.27Z"/>
        <path class="cls-5" d="M80.75,16.83c.94.04,1.7.79,1.7,1.72v9.67c-.02.93-.76,1.66-1.7,1.7h-1.08c-.96,0-1.74-.77-1.76-1.7v-9.67c0-.95.78-1.72,1.76-1.72h1.08ZM80.28,28.7c.41,0,.74-.33.74-.75v-9.15c0-.42-.33-.75-.74-.75h-.21c-.41.02-.74.35-.74.75v9.15c0,.41.33.74.74.75h.21Z"/>
        <path class="cls-5" d="M89.65,29.78c-.7,0-.82-.83-.84-.95l-1.96-11.87h1.08c.1,0,.33.08.41.52l1.31,8.48,1.39-9h1.41l-2.09,12.82h-.7Z"/>
        <path class="cls-5" d="M101.87,28.41c-.16.35-.39.89-.45,1.01-.1.17-.31.37-.76.37h-3.13v-12.43c.02-.21.19-.39.43-.39h3.66l-.47,1.01c-.08.17-.29.38-.74.38h-1.13c-.2,0-.33.14-.33.33v4.02h2.11c-.16.35-.39.91-.45,1.02-.1.17-.29.37-.74.37h-.59c-.18,0-.33.16-.33.33v3.99h2.93Z"/>
        <path class="cls-5" d="M19.28,16.97c.94,0,1.78.75,1.78,1.7v3.5c0,1.31-.65,2.26-2,2.26h-.84v5.35h-1c-.33,0-.39-.19-.39-.29v-12.52h2.45ZM19.71,18.92c-.04-.37-.35-.66-.74-.66h-.74v4.87h.74c.39,0,.7-.29.74-.66v-3.55Z"/>
        <path class="cls-5" d="M31.07,28.41c-.16.35-.39.89-.45,1.01-.1.17-.31.37-.76.37h-3.37v-12.81h.98c.23.02.43.19.43.42v11.01h3.17Z"/>
        <path class="cls-5" d="M39.32,29.78h-1.55l-1.23-8.6-1.23,8.6h-1.54l2.07-12.81h.76c.59,0,.68.37.74.73l1.98,12.08Z"/>
        <path class="cls-5" d="M44.94,29.78c-.22,0-.39-.17-.41-.41v-4.5l-1.68-7.9h1.04s.39.02.45.46l.9,5.12.9-5.12c.06-.44.41-.46.45-.46h1.04l-1.68,7.9v4.91h-1Z"/>
        <path class="cls-5" d="M53.55,16.97c.41,0,.57.31.57.54v8.79h-1c-.33,0-.39-.19-.41-.29v-9.04h.84Z"/>
        <path class="cls-5" d="M61.54,26.31c-.76,0-.88-.6-.94-.87l-1.51-4.59v5.46h-1.41v-9.33h.64c.78,0,.92.37,1,.75l1.45,4.94v-5.69h1.41v9.33h-.65Z"/>
        <path class="cls-2" d="M52.88,28.94c0-.41.22-.56.38-.56h9.05v.98c0,.33-.13.39-.2.4h-9.23v-.83Z"/>
        <path class="cls-4" d="M73.21,48.11c0-.35.19-.48.32-.48h28.34v.85c0,.28-.12.33-.17.35h-28.49v-.71Z"/>
        <path class="cls-4" d="M16.83,38.23c0-.35.19-.48.32-.48h51.7v.85c0,.28-.12.33-.17.35H16.83v-.71Z"/>
        <g>
          <path class="cls-5" d="M18.79,40.76c.75,0,1.43.44,1.43,1v2.06c0,.78-.52,1.33-1.6,1.33h-.67v3.58h-.8c-.27,0-.31-.11-.31-.17v-7.81h1.96ZM19.14,41.92c-.03-.22-.28-.39-.6-.39h-.6v2.87h.6c.31,0,.56-.17.6-.39v-2.1Z"/>
          <path class="cls-5" d="M28.47,48.74h-1.24l-.99-5.49-.99,5.49h-1.24l1.66-7.98h.61c.47,0,.55.22.6.43l1.58,7.55Z"/>
          <path class="cls-5" d="M34.69,48.74v-2.92c0-.39-.28-.51-.58-.51h-.6v3.43h-1.13v-7.98h2.05c.75,0,1.38.44,1.38,1v2.46s.05.63-.41.71c.44.16.41.75.41.75v3.06h-1.13ZM34.11,44.54c.3,0,.58-.09.58-.46v-2.14c0-.3-.28-.41-.58-.41h-.6v3.01h.6Z"/>
          <path class="cls-5" d="M43.52,48.74l-1.51-3.57v3.57h-1.11v-7.67c0-.25.24-.3.36-.31h.75v2.91l1.38-2.88h1.18l-1.77,3.59,1.9,4.37h-1.18Z"/>
          <path class="cls-5" d="M51.08,40.69c.75.02,1.36.47,1.36,1.01v6.12c-.02.55-.61.98-1.36,1h-.86c-.77,0-1.4-.46-1.41-1v-6.12c0-.56.63-1.01,1.41-1.01h.86ZM50.71,48.11c.33,0,.6-.19.6-.44v-5.81c0-.25-.27-.44-.6-.44h-.17c-.33.01-.6.21-.6.44v5.81c0,.24.27.43.6.44h.17Z"/>
          <path class="cls-5" d="M60.68,47.81c0,.55-.61.96-1.35.97h0s-.86.01-.86.01c-.77,0-1.4-.42-1.4-.98v-6.82c.02-.13.16-.23.33-.23h.8v6.9c0,.24.25.43.58.43h.17c.33,0,.6-.19.6-.43v-6.9h1.13v7.05Z"/>
          <path class="cls-5" d="M67.69,48.74v-2.92c0-.39-.28-.51-.58-.51h-.6v3.43h-1.13v-7.98h2.05c.75,0,1.38.44,1.38,1v2.46s.05.63-.41.71c.44.16.41.75.41.75v3.06h-1.13ZM67.11,44.54c.3,0,.58-.09.58-.46v-2.14c0-.3-.28-.41-.58-.41h-.6v3.01h.6Z"/>
          <g>
            <path class="cls-5" d="M77.66,38.38c-.06.1-.24.22-.6.22h-.88c-.16,0-.27.09-.28.19v7.02h-.8c-.27,0-.31-.11-.31-.17v-7.04h-1.58v-.56c0-.14.16-.25.35-.25h4.49l-.38.6Z"/>
            <path class="cls-5" d="M85.51,45c-.13.21-.31.53-.36.6-.08.1-.25.22-.61.22h-2.51v-7.8c.02-.13.16-.23.34-.23h2.93l-.38.6c-.06.1-.24.23-.6.23h-.91c-.16,0-.27.08-.27.19v2.39h1.69c-.13.21-.31.54-.36.61-.08.1-.23.22-.6.22h-.47c-.14,0-.27.09-.27.19v2.79h2.35Z"/>
            <path class="cls-5" d="M93.51,45.81h-1.24l-.99-5.53-.99,5.53h-1.24l1.66-8.03h.61c.47,0,.55.22.6.44l1.58,7.59Z"/>
            <path class="cls-5" d="M101.79,45.81h-1.11v-4.14l-.85,2.75h-.34c-.66,0-.78-.48-.85-.65l-.66-2.1v4.14h-1.11v-8.03h.69c.44,0,.5.3.5.3l1.3,4.61,1.24-4.62s.09-.29.5-.29h.69v8.03Z"/>
          </g>
        </g>
      </g>
    </g>
  </g>
</svg>