<?xml version="1.0" encoding="UTF-8"?>
<svg id="Layer_2" data-name="Layer 2" xmlns="http://www.w3.org/2000/svg" viewBox="0 0 1919.69 687.26">
  <defs>
    <style>
      .cls-1 {
        fill: #000;
      }

      .cls-1, .cls-2 {
        stroke-width: 0px;
      }

      .cls-2 {
        fill: #fcb223;
      }
    </style>
  </defs>
  <g id="Layer_1-2" data-name="Layer 1">
    <g>
      <path class="cls-2" d="M1919.69,662.98V63.46c-20.61-3.17-275.19-41.99-436.36-45.49-168.07-3.63-570.75,92-973.44,16.73C132.59-35.83,13.51,25.83,0,33.86v625.31c17.58-4.45,205.03-49.81,408.35-6.2,213.6,45.82,703.82-42.54,917.41,9.82,206.23,50.56,569.15,3.48,593.93.18Z"/>
      <path class="cls-1" d="M1483.3,19.24c160.58,3.47,417.21,42.54,436.39,45.5v-2.55c-22.38-3.43-276.7-41.99-436.33-45.46-50.63-1.11-124.06,6.98-209.09,16.32-203.71,22.38-482.73,53.03-764.11.44C418.25,16.3,334.16,5.61,260.21,1.7,238.75.57,218.11,0,198.39,0c-34.68,0-66.56,1.75-95.28,5.24C37.14,13.24,7.75,27.88,0,32.37v2.99c4.22-2.6,33.23-19.17,103.88-27.7,127.84-15.42,291.21,6.85,405.76,28.27,281.79,52.67,561.05,21.99,764.95-.41,84.92-9.33,158.26-17.4,208.72-16.29ZM1919.69,664.24v-2.52c-11.19,1.48-102.74,13.38-216.3,19.47-111.31,5.97-267.13,7.41-377.29-19.6-109.87-26.94-294.63-16.6-473.28-6.61-167.37,9.35-340.42,19.04-444.18-3.21-110.51-23.71-216.18-20.67-285.38-13.94C56.07,644.37,9.34,655.54,0,657.88v2.59c7.24-1.84,54.59-13.45,123.61-20.17,68.98-6.7,174.31-9.73,284.44,13.89,104.13,22.34,277.37,12.64,444.93,3.27,178.46-9.97,362.99-20.3,472.45,6.54,110.5,27.09,266.63,25.65,378.15,19.68,112.45-6.03,203.35-17.75,216.12-19.45Z"/>
    </g>
  </g>
</svg>