<?xml version="1.0" encoding="UTF-8"?>
<svg id="Layer_2" data-name="Layer 2" xmlns="http://www.w3.org/2000/svg" viewBox="0 0 317.74 234.6">
  <defs>
    <style>
      .cls-1 {
        fill: #63acdf;
      }

      .cls-1, .cls-2 {
        stroke-width: 0px;
      }

      .cls-2 {
        fill: #000;
      }
    </style>
  </defs>
  <g id="Layer_1-2" data-name="Layer 1">
    <g>
      <g>
        <g>
          <g>
            <g>
              <path class="cls-1" d="M159.54,45.56c-2.59-10.86-11.18-8.79-12.12-7.67-.99,1.14-8.66,7.99-16.17,41.35,0,0-1.74,8.94-5.27,7.19-3.29-1.62-33.24-14.97-37.25-16.76-.07-.75.22-1.54.86-2.11,5.31-4.66,10.28-11.71,12.78-15.42,3.01-4.37,7.95-26.41-8.08-38.91C78.27.74,67.36,2.67,57.82,2.14c-9.49-.51-31.49,9.69-32.58,34.87-.79,19.13,11.47,29,17.44,32.67,1.5.9,1.65,3.01.33,4.13-3.05,2.59-8.69,7.29-17.38,14.3C11.35,99.52,1.29,109.07,2.17,120.85c.9,11.8,22.52,37.46,31.4,41.13,1.4.55,2.68.79,3.75.79-.37,3.1-.65,4.94-.65,4.94,0,0-13.19,63.92-.9,64.11,16.25.24,23.77-68.07,35.04-66.82,8.65.98,11.35,10.97,16.94,40.68,5.54,29.49,14.9,26.08,14.9,26.08,0,0,6.94-.38,8.74-11.93.84-5.41-2.16-31.53-5.6-58.05-.2-1.53-2.2-16.49-2.2-16.49-2.46-18.24-4.8-34.49-5.85-41.57-.2-.41-.29-5.49,3.23-5.49.7,0,1.5.15,2.48.51,6.07,2.2,31.31,17.05,36.76,9.07,5.4-7.99,21.85-51.41,19.31-62.26ZM39.54,145.67c-6.49-8.55-16.64-21.24-17.25-24.34-.61-3.25,10.81-13.25,17.25-18.61,1.74-1.45,4.32-.15,4.22,2.07-.51,9.91-2.48,27.02-4.22,40.88Z"/>
              <path class="cls-2" d="M101.75,234.01c-.97,0-2.27-.22-3.77-1.08-5.39-3.07-9.53-12.1-12.31-26.84-5.55-29.5-8.2-38.2-15.09-38.98h-.12c-3.42,0-8.55,16.41-11.95,27.32-6.07,19.43-12.34,39.51-22.65,39.51h-.12c-1.66-.02-3.13-.78-4.25-2.17-7.88-9.83,1.95-58.89,3.1-64.47h0s.15-.98.36-2.67c-.72-.16-1.45-.38-2.17-.67C23.48,160.1,1.03,133.74.06,121.01c-1-13.24,10.39-23.48,24.24-34.55,8.68-6.98,14.3-11.68,17.34-14.26h0s-.06-.72-.06-.72c-5.83-3.59-19.29-14.12-18.45-34.56.6-13.81,7.13-22.53,12.51-27.41C43.28,2.58,52.53-.29,57.94.02c1.38.08,2.79.11,4.24.13,8.55.14,19.2.32,33.41,11.41,16.98,13.23,12.32,36.27,8.53,41.78-4.44,6.6-8.66,11.74-12.54,15.28,21.44,9.57,33.32,14.92,35.34,15.91.56-.31,1.76-3.15,2.26-5.69,3.31-14.74,8.86-33.98,16.5-42.17,1.34-1.59,4.63-2.21,7.43-1.56,2.42.57,6.75,2.63,8.5,9.96h0c2.83,12.12-14.48,56.33-19.62,63.94-5.35,7.83-22.33-.3-33.57-5.68-2.45-1.18-4.45-2.14-5.66-2.58-1.16-.45-1.99-.55-2.33-.17-.55.63-.68,2.17-.61,2.66,1.08,7.26,3.44,23.51,5.89,41.77,0,0,2.01,14.96,2.21,16.5,5.98,46.28,6.06,55.64,5.59,58.65-1.84,11.86-8.84,13.47-10.41,13.69-.29.07-.74.16-1.32.16ZM70.46,162.87c.2,0,.4,0,.6.03,10.6,1.19,13.42,13.86,18.79,42.4,3.23,17.19,7.63,22.28,9.97,23.79,1.34.86,2.21.66,2.22.66.69-.12,5.79-.71,7.27-10.23.66-4.26-1.22-23.6-5.6-57.46-.2-1.54-2.21-16.48-2.21-16.48-2.45-18.19-4.79-34.4-5.83-41.49-.29-1.36-.04-3.88,1.04-5.6,1.51-2.39,4.27-2.94,7.5-1.71,1.26.45,3.4,1.47,6.02,2.73,7.47,3.58,24.93,11.93,28.25,7.12,5-7.41,21.33-50.56,19-60.6-.83-3.45-2.34-5.64-4.5-6.54-1.96-.79-3.79-.27-4.15-.05-5.51,5.96-11,20.22-15.51,40.26-.31,1.6-1.61,7.13-4.69,8.65-1.14.56-2.41.55-3.59-.03-1.98-.97-13.99-6.38-35.72-16.07l-2.59-1.16-.11-1.24c-.12-1.45.45-2.89,1.57-3.88,3.71-3.26,8.01-8.45,12.42-15.02,2.78-4.03,6.94-24.7-7.63-36.06-13.1-10.22-22.55-10.38-30.89-10.53-1.5-.02-2.97-.05-4.4-.12-.2-.02-.4-.02-.6-.02-4.75,0-12.45,2.8-18.62,8.41-4.79,4.34-10.6,12.11-11.13,24.46-.73,17.54,9.98,26.81,16.43,30.78,1.28.76,2.09,2.07,2.22,3.59.12,1.5-.48,2.98-1.63,3.96-3.06,2.6-8.71,7.31-17.43,14.33-15.3,12.22-23.44,20.78-22.68,30.94.84,11.04,21.99,35.98,30.11,39.33,1.3.52,2.31.63,2.93.63h2.38l-.28,2.36c-.36,3.15-.65,5.02-.65,5.02-4.2,20.37-8.97,54.84-3.97,61.08.44.55.78.59,1.07.6,7.21,0,13.79-21.12,18.61-36.54,5.99-19.21,9.77-30.3,15.98-30.3ZM41,151.09l-6.91-9.06c-8.26-10.74-13.32-17.46-13.88-20.28-.31-1.63-.92-4.95,17.98-20.65,1.45-1.2,3.41-1.45,5.08-.61,1.69.83,2.69,2.51,2.61,4.39-.58,11.03-2.91,30.46-4.24,41.07l-.64,5.15ZM40.9,104.35c-12.74,10.59-16.38,15.51-16.52,16.75.43,1.93,8.34,12.21,13.06,18.35l.64.83c1.33-10.88,3.08-26.33,3.57-35.6l-.75-.33Z"/>
            </g>
            <g>
              <circle class="cls-2" cx="84.73" cy="33.11" r="4.22"/>
              <circle class="cls-2" cx="54.01" cy="33.11" r="4.22"/>
              <path class="cls-2" d="M70.44,57.39c-4.04,0-8.79-1.32-13.6-5.57-.88-.78-.96-2.12-.19-2.98.78-.88,2.12-.97,2.98-.19,9.99,8.82,19.21,2.12,19.6,1.83.94-.7,2.27-.5,2.96.41.7.93.52,2.25-.4,2.96-.07.06-4.78,3.54-11.35,3.54Z"/>
            </g>
          </g>
          <g>
            <path class="cls-1" d="M39.54,145.67s11.63,16.61-2.22,17.11"/>
            <path class="cls-2" d="M37.39,164.89l-.15-4.23c2.38-.08,3.87-.69,4.42-1.8,1.42-2.85-1.98-9.3-3.86-11.97l3.47-2.43c.74,1.05,7.09,10.42,4.17,16.28-1.3,2.61-4.01,4-8.06,4.15Z"/>
          </g>
        </g>
        <g>
          <path class="cls-1" d="M39.7,144.42s24.41,13.24,64.08,2.26"/>
          <path class="cls-2" d="M72.91,153.18c-21.16,0-33.51-6.51-34.22-6.9l2.02-3.72c.23.13,24.19,12.69,62.51,2.07l1.12,4.08c-11.91,3.3-22.46,4.46-31.43,4.46Z"/>
        </g>
        <g>
          <path class="cls-1" d="M112.49,80.31s-.8,14.61,2.26,23.68"/>
          <path class="cls-2" d="M112.74,104.66c-3.14-9.35-2.4-23.86-2.36-24.47l4.23.23c0,.14-.74,14.31,2.15,22.89l-4.02,1.36Z"/>
        </g>
        <g>
          <path class="cls-1" d="M15.64,96.54s1.5,13.67,14.6,14.36"/>
          <path class="cls-2" d="M30.13,113.02c-11.79-.62-16.01-10.89-16.59-16.24l4.2-.47c.06.49,1.5,11.9,12.6,12.48l-.21,4.23Z"/>
        </g>
        <g>
          <path class="cls-1" d="M30.79,209.08s5.47,8.87,19.41,3.63"/>
          <path class="cls-2" d="M42.02,216.46c-9.03,0-12.98-6.19-13.03-6.26l3.6-2.25c.19.31,4.86,7.31,16.88,2.78l1.49,3.97c-3.4,1.27-6.36,1.77-8.93,1.77Z"/>
        </g>
        <g>
          <path class="cls-1" d="M89.33,212.81s9.13,7.27,21.94-1.96"/>
          <path class="cls-2" d="M98.34,217.67c-6.17,0-10.07-3.01-10.32-3.21l2.62-3.31c.33.25,8.14,6.1,19.4-2.02l2.48,3.44c-5.41,3.9-10.26,5.11-14.17,5.11Z"/>
        </g>
        <path class="cls-2" d="M67.06,95.68c-17.97,0-32.06-13.79-32.68-14.41l2.98-3.01c.15.14,14.84,14.73,32.38,13.07,10.18-.9,19.37-7.08,27.33-18.37l3.45,2.43c-8.71,12.37-18.95,19.16-30.45,20.17-1.02.08-2.02.12-3.02.12Z"/>
      </g>
      <g>
        <g>
          <g>
            <g>
              <path class="cls-1" d="M177.51,108.42c5.45,7.99,30.69-6.86,36.76-9.07.98-.37,1.78-.51,2.48-.51,3.52,0,3.43,5.08,3.23,5.49-1.04,7.07-3.39,23.32-5.85,41.57,0,0-2.01,14.96-2.2,16.49-3.43,26.52-6.44,52.64-5.6,58.05,1.79,11.55,8.74,11.93,8.74,11.93,0,0,9.36,3.41,14.9-26.08,5.58-29.71,8.29-39.7,16.94-40.68,11.27-1.25,18.8,67.05,35.04,66.82,12.29-.18-.9-64.11-.9-64.11,0,0-.28-1.83-.65-4.94,1.07,0,2.35-.24,3.75-.79,8.88-3.67,30.5-29.33,31.4-41.13.88-11.79-9.17-21.33-23.46-32.75-8.7-7.01-14.33-11.71-17.38-14.3-1.32-1.12-1.17-3.23.33-4.13,5.97-3.67,18.23-13.54,17.44-32.67-1.08-25.18-23.09-35.39-32.58-34.87-9.54.53-20.45-1.4-36.47,11.1-16.02,12.5-11.09,34.54-8.08,38.91,2.49,3.71,7.47,10.76,12.78,15.42.63.57.92,1.36.86,2.11-4.01,1.79-33.96,15.14-37.25,16.76-3.52,1.74-5.27-7.19-5.27-7.19-7.51-33.37-15.18-40.22-16.17-41.35-.94-1.12-9.53-3.19-12.12,7.67-2.53,10.85,13.91,54.28,19.31,62.26ZM273.97,105.38c-.09-2.22,2.48-3.52,4.22-2.07,6.44,5.36,17.86,15.36,17.25,18.61-.61,3.1-10.76,15.79-17.25,24.34-1.74-13.86-3.71-30.97-4.22-40.88Z"/>
              <path class="cls-2" d="M214.66,234.44c-1.57-.21-8.57-1.83-10.41-13.69-.47-3.01-.4-12.36,5.59-58.65.2-1.54,2.21-16.5,2.21-16.5,2.45-18.26,4.81-34.51,5.89-41.77.07-.49-.07-2.03-.61-2.66-.34-.39-1.17-.28-2.33.17-1.21.44-3.21,1.4-5.66,2.58-11.24,5.38-28.22,13.5-33.57,5.68-5.14-7.6-22.45-51.82-19.62-63.93h0c1.74-7.34,6.07-9.4,8.5-9.97,2.8-.65,6.09-.02,7.43,1.56,7.64,8.19,13.18,27.42,16.5,42.17.5,2.55,1.69,5.38,2.26,5.69,2.02-.99,13.9-6.34,35.34-15.91-3.88-3.54-8.1-8.68-12.54-15.28-3.79-5.5-8.45-28.55,8.53-41.78C236.36,1.07,247,.89,255.56.75c1.45-.02,2.86-.05,4.24-.13,5.41-.31,14.66,2.55,22.3,9.49,5.38,4.88,11.92,13.6,12.51,27.41.84,20.44-12.62,30.98-18.45,34.56l-.06.71h0c3.04,2.59,8.66,7.28,17.34,14.26,13.85,11.07,25.24,21.31,24.24,34.55-.97,12.73-23.41,39.09-32.74,42.94-.72.29-1.45.51-2.17.67.21,1.69.36,2.67.36,2.67h0c1.15,5.58,10.98,54.65,3.1,64.47-1.12,1.4-2.59,2.15-4.25,2.17h-.12c-10.31,0-16.59-20.08-22.65-39.51-3.4-10.91-8.53-27.32-11.95-27.32h-.12c-6.89.78-9.55,9.48-15.09,38.98-2.78,14.74-6.92,23.78-12.31,26.84-1.5.86-2.8,1.08-3.77,1.08-.58,0-1.03-.08-1.32-.16ZM263.26,193.76c4.82,15.42,11.41,36.54,18.61,36.54.29,0,.63-.05,1.07-.6,5-6.23.23-40.7-3.97-61.08,0,0-.29-1.87-.65-5.02l-.28-2.36h2.38c.62,0,1.64-.11,2.93-.63,8.12-3.35,29.27-28.29,30.11-39.33.76-10.17-7.38-18.72-22.68-30.94-8.72-7.03-14.37-11.74-17.43-14.33-1.15-.98-1.75-2.46-1.63-3.96.13-1.51.94-2.83,2.22-3.59,6.45-3.97,17.16-13.24,16.43-30.78-.53-12.35-6.35-20.12-11.13-24.46-6.17-5.6-13.87-8.41-18.62-8.41-.2,0-.4,0-.6.02-1.43.07-2.89.1-4.4.12-8.34.15-17.79.31-30.89,10.53-14.57,11.36-10.41,32.03-7.63,36.06,4.41,6.56,8.71,11.75,12.42,15.02,1.12.98,1.69,2.43,1.57,3.88l-.11,1.24-2.59,1.16c-21.73,9.69-33.74,15.11-35.72,16.07-1.18.58-2.45.6-3.59.03-3.07-1.52-4.37-7.05-4.69-8.65-4.51-20.04-10-34.3-15.51-40.26-.36-.22-2.19-.74-4.15.05-2.17.89-3.68,3.09-4.5,6.54-2.33,10.03,14,53.19,19,60.6,3.31,4.81,20.78-3.55,28.25-7.12,2.62-1.26,4.75-2.27,6.02-2.73,3.23-1.23,5.99-.68,7.5,1.71,1.08,1.72,1.33,4.23,1.04,5.6-1.04,7.09-3.38,23.3-5.83,41.49,0,0-2.01,14.94-2.21,16.48-4.38,33.86-6.26,53.19-5.6,57.46,1.48,9.52,6.59,10.12,7.27,10.23.02,0,.88.2,2.22-.66,2.34-1.5,6.74-6.6,9.97-23.79,5.36-28.54,8.18-41.21,18.79-42.4.2-.02.4-.03.6-.03,6.22,0,9.99,11.09,15.98,30.3ZM276.09,146.53c-1.33-10.6-3.66-30.04-4.24-41.07-.07-1.88.93-3.56,2.61-4.39,1.67-.83,3.63-.59,5.08.61,18.89,15.7,18.28,19.03,17.98,20.65-.55,2.82-5.61,9.55-13.88,20.28l-6.91,9.06-.64-5.15ZM276.09,105.27c.49,9.27,2.24,24.72,3.57,35.6l.64-.83c4.72-6.14,12.63-16.42,13.06-18.35-.14-1.24-3.78-6.17-16.52-16.75l-.75.33Z"/>
            </g>
            <g>
              <circle class="cls-2" cx="233" cy="33.7" r="4.22"/>
              <circle class="cls-2" cx="263.72" cy="33.7" r="4.22"/>
              <path class="cls-2" d="M247.29,57.98c4.04,0,8.79-1.32,13.6-5.57.88-.78.96-2.12.19-2.98-.78-.88-2.12-.97-2.98-.19-9.99,8.82-19.21,2.12-19.6,1.83-.94-.7-2.27-.5-2.96.41-.7.93-.52,2.25.4,2.96.07.06,4.78,3.54,11.35,3.54Z"/>
            </g>
          </g>
          <g>
            <path class="cls-1" d="M278.2,146.26s-11.63,16.61,2.22,17.11"/>
            <path class="cls-2" d="M280.34,165.48l.15-4.23c-2.38-.08-3.87-.69-4.42-1.8-1.42-2.85,1.98-9.3,3.86-11.97l-3.47-2.43c-.74,1.05-7.09,10.42-4.17,16.28,1.3,2.61,4.01,4,8.06,4.15Z"/>
          </g>
        </g>
        <g>
          <path class="cls-1" d="M278.04,145.01s-24.41,13.24-64.08,2.26"/>
          <path class="cls-2" d="M244.82,153.77c21.16,0,33.51-6.51,34.22-6.9l-2.02-3.72c-.23.13-24.19,12.69-62.51,2.07l-1.12,4.08c11.91,3.3,22.46,4.46,31.43,4.46Z"/>
        </g>
        <g>
          <path class="cls-1" d="M205.24,80.9s.8,14.61-2.26,23.68"/>
          <path class="cls-2" d="M204.99,105.26c3.14-9.35,2.4-23.86,2.36-24.47l-4.23.23c0,.14.74,14.31-2.15,22.89l4.02,1.36Z"/>
        </g>
        <g>
          <path class="cls-1" d="M302.1,97.14s-1.5,13.67-14.6,14.36"/>
          <path class="cls-2" d="M287.61,113.61c11.79-.62,16.01-10.89,16.59-16.24l-4.2-.47c-.06.49-1.5,11.9-12.6,12.48l.21,4.23Z"/>
        </g>
        <g>
          <path class="cls-1" d="M286.94,209.67s-5.47,8.87-19.41,3.63"/>
          <path class="cls-2" d="M275.71,217.05c9.03,0,12.98-6.19,13.03-6.26l-3.6-2.25c-.19.31-4.86,7.31-16.88,2.78l-1.49,3.97c3.4,1.27,6.36,1.77,8.93,1.77Z"/>
        </g>
        <g>
          <path class="cls-1" d="M228.41,213.4s-9.13,7.27-21.94-1.96"/>
          <path class="cls-2" d="M219.4,218.27c6.17,0,10.07-3.01,10.32-3.21l-2.62-3.31c-.33.25-8.14,6.1-19.4-2.02l-2.48,3.44c5.41,3.9,10.26,5.11,14.17,5.11Z"/>
        </g>
        <path class="cls-2" d="M250.67,96.27c17.97,0,32.06-13.79,32.68-14.41l-2.98-3.01c-.15.14-14.84,14.73-32.38,13.07-10.18-.9-19.37-7.08-27.33-18.37l-3.45,2.43c8.71,12.37,18.95,19.16,30.45,20.17,1.02.08,2.02.12,3.02.12Z"/>
      </g>
    </g>
  </g>
</svg>